  0
SECTION
  2
HEADER
  9
$ACADVER
  1
AC1009
  9
$FILLMODE
 70
 0
  9
$SPLFRAME
 70
 1
  9
$EXTMIN
 10
0
 20
0
 30
0.0
  9
$EXTMAX
 10
1058.33
 20
1058.33
 30
0.0
  0
ENDSEC
  0
SECTION
  2
TABLES
  0
TABLE
  2
LAYER
 70
1
  0
LAYER
  2
0
 70
     0
 62
     7
  6
CONTINUOUS
  0
ENDTAB
  0
ENDSEC
  0
SECTION
  2
ENTITIES
  0
POLYLINE
  8
0
 62
     0
 66
     1
 10
0
 20
0
 30
0.0
 70
     1
 40
0.566929
 41
0.566929
  0
VERTEX
  8
0
 10
10.0996
 20
10.0004
 30
0.0
 40
0.2
 41
0.2
  0
VERTEX
  8
0
 10
110.1
 20
10.0004
 30
0.0
 40
0.2
 41
0.2
  0
VERTEX
  8
0
 10
110.1
 20
19.9995
 30
0.0
 40
0.2
 41
0.2
  0
VERTEX
  8
0
 10
10.0996
 20
19.9995
 30
0.0
 40
0.2
 41
0.2
  0
VERTEX
  8
0
 10
10.0996
 20
10.0004
 30
0.0
 40
0.2
 41
0.2
  0
SEQEND
 8
0
  0
TEXT
  8
0
 62
     1
 10
28.2549
 20
13.7943
 30
0.0
 40
6.00075
  1
100.0mm, burn:0.10mm
 50
0
  0
POLYLINE
  8
0
 62
     5
 66
     1
 10
0
 20
0
 30
0.0
 70
     1
 40
0.566929
 41
0.566929
  0
VERTEX
  8
0
 10
48.1005
 20
36.6504
 30
0.0
 40
0.2
 41
0.2
  0
VERTEX
  8
0
 10
24.8502
 20
36.6504
 30
0.0
 40
0.2
 41
0.2
  0
VERTEX
  8
0
 10
24.7551
 20
36.6504
 30
0.0
 40
0.2
 41
0.2
  0
VERTEX
  8
0
 10
24.4698
 20
36.6765
 30
0.0
 40
0.2
 41
0.2
  0
VERTEX
  8
0
 10
24.0978
 20
36.7496
 30
0.0
 40
0.2
 41
0.2
  0
VERTEX
  8
0
 10
23.7395
 20
36.8709
 30
0.0
 40
0.2
 41
0.2
  0
VERTEX
  8
0
 10
23.4818
 20
36.9919
 30
0.0
 40
0.2
 41
0.2
  0
VERTEX
  8
0
 10
23.4005
 20
37.0388
 30
0.0
 40
0.2
 41
0.2
  0
VERTEX
  8
0
 10
23.3178
 20
37.0872
 30
0.0
 40
0.2
 41
0.2
  0
VERTEX
  8
0
 10
23.0835
 20
37.2512
 30
0.0
 40
0.2
 41
0.2
  0
VERTEX
  8
0
 10
22.7983
 20
37.5006
 30
0.0
 40
0.2
 41
0.2
  0
VERTEX
  8
0
 10
22.5488
 20
37.7843
 30
0.0
 40
0.2
 41
0.2
  0
VERTEX
  8
0
 10
22.3848
 20
38.0189
 30
0.0
 40
0.2
 41
0.2
  0
VERTEX
  8
0
 10
22.338
 20
38.1
 30
0.0
 40
0.2
 41
0.2
  0
VERTEX
  8
0
 10
22.2898
 20
38.1826
 30
0.0
 40
0.2
 41
0.2
  0
VERTEX
  8
0
 10
22.1699
 20
38.4418
 30
0.0
 40
0.2
 41
0.2
  0
VERTEX
  8
0
 10
22.0486
 20
38.7999
 30
0.0
 40
0.2
 41
0.2
  0
VERTEX
  8
0
 10
21.9742
 20
39.1707
 30
0.0
 40
0.2
 41
0.2
  0
VERTEX
  8
0
 10
21.9494
 20
39.4561
 30
0.0
 40
0.2
 41
0.2
  0
VERTEX
  8
0
 10
21.9494
 20
39.5496
 30
0.0
 40
0.2
 41
0.2
  0
VERTEX
  8
0
 10
21.9494
 20
86.0503
 30
0.0
 40
0.2
 41
0.2
  0
VERTEX
  8
0
 10
21.9494
 20
86.1452
 30
0.0
 40
0.2
 41
0.2
  0
VERTEX
  8
0
 10
21.9742
 20
86.4306
 30
0.0
 40
0.2
 41
0.2
  0
VERTEX
  8
0
 10
22.0486
 20
86.8013
 30
0.0
 40
0.2
 41
0.2
  0
VERTEX
  8
0
 10
22.1699
 20
87.1594
 30
0.0
 40
0.2
 41
0.2
  0
VERTEX
  8
0
 10
22.2898
 20
87.4187
 30
0.0
 40
0.2
 41
0.2
  0
VERTEX
  8
0
 10
22.338
 20
87.4998
 30
0.0
 40
0.2
 41
0.2
  0
VERTEX
  8
0
 10
22.3848
 20
87.5827
 30
0.0
 40
0.2
 41
0.2
  0
VERTEX
  8
0
 10
22.5488
 20
87.817
 30
0.0
 40
0.2
 41
0.2
  0
VERTEX
  8
0
 10
22.7983
 20
88.1006
 30
0.0
 40
0.2
 41
0.2
  0
VERTEX
  8
0
 10
23.0835
 20
88.3514
 30
0.0
 40
0.2
 41
0.2
  0
VERTEX
  8
0
 10
23.3178
 20
88.5141
 30
0.0
 40
0.2
 41
0.2
  0
VERTEX
  8
0
 10
23.4005
 20
88.561
 30
0.0
 40
0.2
 41
0.2
  0
VERTEX
  8
0
 10
23.4818
 20
88.6093
 30
0.0
 40
0.2
 41
0.2
  0
VERTEX
  8
0
 10
23.7395
 20
88.7307
 30
0.0
 40
0.2
 41
0.2
  0
VERTEX
  8
0
 10
24.0978
 20
88.8517
 30
0.0
 40
0.2
 41
0.2
  0
VERTEX
  8
0
 10
24.4698
 20
88.9247
 30
0.0
 40
0.2
 41
0.2
  0
VERTEX
  8
0
 10
24.7551
 20
88.9497
 30
0.0
 40
0.2
 41
0.2
  0
VERTEX
  8
0
 10
24.8502
 20
88.9497
 30
0.0
 40
0.2
 41
0.2
  0
VERTEX
  8
0
 10
71.3507
 20
88.9497
 30
0.0
 40
0.2
 41
0.2
  0
VERTEX
  8
0
 10
71.4446
 20
88.9497
 30
0.0
 40
0.2
 41
0.2
  0
VERTEX
  8
0
 10
71.7296
 20
88.9247
 30
0.0
 40
0.2
 41
0.2
  0
VERTEX
  8
0
 10
72.1004
 20
88.8517
 30
0.0
 40
0.2
 41
0.2
  0
VERTEX
  8
0
 10
72.4588
 20
88.7307
 30
0.0
 40
0.2
 41
0.2
  0
VERTEX
  8
0
 10
72.7177
 20
88.6093
 30
0.0
 40
0.2
 41
0.2
  0
VERTEX
  8
0
 10
72.8003
 20
88.561
 30
0.0
 40
0.2
 41
0.2
  0
VERTEX
  8
0
 10
72.8818
 20
88.5141
 30
0.0
 40
0.2
 41
0.2
  0
VERTEX
  8
0
 10
73.116
 20
88.3514
 30
0.0
 40
0.2
 41
0.2
  0
VERTEX
  8
0
 10
73.4
 20
88.1006
 30
0.0
 40
0.2
 41
0.2
  0
VERTEX
  8
0
 10
73.6494
 20
87.817
 30
0.0
 40
0.2
 41
0.2
  0
VERTEX
  8
0
 10
73.8131
 20
87.5827
 30
0.0
 40
0.2
 41
0.2
  0
VERTEX
  8
0
 10
73.8614
 20
87.4998
 30
0.0
 40
0.2
 41
0.2
  0
VERTEX
  8
0
 10
73.9084
 20
87.4187
 30
0.0
 40
0.2
 41
0.2
  0
VERTEX
  8
0
 10
74.0297
 20
87.1594
 30
0.0
 40
0.2
 41
0.2
  0
VERTEX
  8
0
 10
74.1507
 20
86.8013
 30
0.0
 40
0.2
 41
0.2
  0
VERTEX
  8
0
 10
74.2237
 20
86.4306
 30
0.0
 40
0.2
 41
0.2
  0
VERTEX
  8
0
 10
74.2502
 20
86.1452
 30
0.0
 40
0.2
 41
0.2
  0
VERTEX
  8
0
 10
74.2502
 20
86.0503
 30
0.0
 40
0.2
 41
0.2
  0
VERTEX
  8
0
 10
74.2502
 20
39.5496
 30
0.0
 40
0.2
 41
0.2
  0
VERTEX
  8
0
 10
74.2502
 20
39.4561
 30
0.0
 40
0.2
 41
0.2
  0
VERTEX
  8
0
 10
74.2237
 20
39.1707
 30
0.0
 40
0.2
 41
0.2
  0
VERTEX
  8
0
 10
74.1507
 20
38.7999
 30
0.0
 40
0.2
 41
0.2
  0
VERTEX
  8
0
 10
74.0297
 20
38.4418
 30
0.0
 40
0.2
 41
0.2
  0
VERTEX
  8
0
 10
73.9084
 20
38.1826
 30
0.0
 40
0.2
 41
0.2
  0
VERTEX
  8
0
 10
73.8614
 20
38.1
 30
0.0
 40
0.2
 41
0.2
  0
VERTEX
  8
0
 10
73.8131
 20
38.0189
 30
0.0
 40
0.2
 41
0.2
  0
VERTEX
  8
0
 10
73.6494
 20
37.7843
 30
0.0
 40
0.2
 41
0.2
  0
VERTEX
  8
0
 10
73.4
 20
37.5006
 30
0.0
 40
0.2
 41
0.2
  0
VERTEX
  8
0
 10
73.116
 20
37.2512
 30
0.0
 40
0.2
 41
0.2
  0
VERTEX
  8
0
 10
72.8818
 20
37.0872
 30
0.0
 40
0.2
 41
0.2
  0
VERTEX
  8
0
 10
72.8003
 20
37.0388
 30
0.0
 40
0.2
 41
0.2
  0
VERTEX
  8
0
 10
72.7177
 20
36.9919
 30
0.0
 40
0.2
 41
0.2
  0
VERTEX
  8
0
 10
72.4588
 20
36.8709
 30
0.0
 40
0.2
 41
0.2
  0
VERTEX
  8
0
 10
72.1004
 20
36.7496
 30
0.0
 40
0.2
 41
0.2
  0
VERTEX
  8
0
 10
71.7296
 20
36.6765
 30
0.0
 40
0.2
 41
0.2
  0
VERTEX
  8
0
 10
71.4446
 20
36.6504
 30
0.0
 40
0.2
 41
0.2
  0
VERTEX
  8
0
 10
71.3507
 20
36.6504
 30
0.0
 40
0.2
 41
0.2
  0
VERTEX
  8
0
 10
48.1005
 20
36.6504
 30
0.0
 40
0.2
 41
0.2
  0
SEQEND
 8
0
  0
POLYLINE
  8
0
 62
     5
 66
     1
 10
0
 20
0
 30
0.0
 70
     1
 40
0.566929
 41
0.566929
  0
VERTEX
  8
0
 10
48.1005
 20
24.8998
 30
0.0
 40
0.2
 41
0.2
  0
VERTEX
  8
0
 10
33.1997
 20
24.8998
 30
0.0
 40
0.2
 41
0.2
  0
VERTEX
  8
0
 10
33.1887
 20
24.8998
 30
0.0
 40
0.2
 41
0.2
  0
VERTEX
  8
0
 10
33.157
 20
24.886
 30
0.0
 40
0.2
 41
0.2
  0
VERTEX
  8
0
 10
33.1625
 20
24.8626
 30
0.0
 40
0.2
 41
0.2
  0
VERTEX
  8
0
 10
33.1845
 20
24.8584
 30
0.0
 40
0.2
 41
0.2
  0
VERTEX
  8
0
 10
33.1997
 20
24.8901
 30
0.0
 40
0.2
 41
0.2
  0
VERTEX
  8
0
 10
33.1997
 20
24.8998
 30
0.0
 40
0.2
 41
0.2
  0
VERTEX
  8
0
 10
33.1997
 20
27.6999
 30
0.0
 40
0.2
 41
0.2
  0
VERTEX
  8
0
 10
33.1997
 20
27.711
 30
0.0
 40
0.2
 41
0.2
  0
VERTEX
  8
0
 10
33.1845
 20
27.7427
 30
0.0
 40
0.2
 41
0.2
  0
VERTEX
  8
0
 10
33.1625
 20
27.7385
 30
0.0
 40
0.2
 41
0.2
  0
VERTEX
  8
0
 10
33.157
 20
27.7151
 30
0.0
 40
0.2
 41
0.2
  0
VERTEX
  8
0
 10
33.1887
 20
27.6999
 30
0.0
 40
0.2
 41
0.2
  0
VERTEX
  8
0
 10
33.1997
 20
27.6999
 30
0.0
 40
0.2
 41
0.2
  0
VERTEX
  8
0
 10
62.9998
 20
27.6999
 30
0.0
 40
0.2
 41
0.2
  0
VERTEX
  8
0
 10
63.0093
 20
27.6999
 30
0.0
 40
0.2
 41
0.2
  0
VERTEX
  8
0
 10
63.041
 20
27.7151
 30
0.0
 40
0.2
 41
0.2
  0
VERTEX
  8
0
 10
63.0372
 20
27.7385
 30
0.0
 40
0.2
 41
0.2
  0
VERTEX
  8
0
 10
63.0135
 20
27.7427
 30
0.0
 40
0.2
 41
0.2
  0
VERTEX
  8
0
 10
62.9998
 20
27.711
 30
0.0
 40
0.2
 41
0.2
  0
VERTEX
  8
0
 10
62.9998
 20
27.6999
 30
0.0
 40
0.2
 41
0.2
  0
VERTEX
  8
0
 10
62.9998
 20
24.8998
 30
0.0
 40
0.2
 41
0.2
  0
VERTEX
  8
0
 10
62.9998
 20
24.8901
 30
0.0
 40
0.2
 41
0.2
  0
VERTEX
  8
0
 10
63.0135
 20
24.8584
 30
0.0
 40
0.2
 41
0.2
  0
VERTEX
  8
0
 10
63.0372
 20
24.8626
 30
0.0
 40
0.2
 41
0.2
  0
VERTEX
  8
0
 10
63.041
 20
24.886
 30
0.0
 40
0.2
 41
0.2
  0
VERTEX
  8
0
 10
63.0093
 20
24.8998
 30
0.0
 40
0.2
 41
0.2
  0
VERTEX
  8
0
 10
62.9998
 20
24.8998
 30
0.0
 40
0.2
 41
0.2
  0
VERTEX
  8
0
 10
48.1005
 20
24.8998
 30
0.0
 40
0.2
 41
0.2
  0
SEQEND
 8
0
  0
POLYLINE
  8
0
 62
     0
 66
     1
 10
0
 20
0
 30
0.0
 70
     1
 40
0.566929
 41
0.566929
  0
VERTEX
  8
0
 10
13.0996
 20
21.7
 30
0.0
 40
0.2
 41
0.2
  0
VERTEX
  8
0
 10
83.1
 20
21.7
 30
0.0
 40
0.2
 41
0.2
  0
VERTEX
  8
0
 10
83.1162
 20
21.7
 30
0.0
 40
0.2
 41
0.2
  0
VERTEX
  8
0
 10
83.1702
 20
21.7303
 30
0.0
 40
0.2
 41
0.2
  0
VERTEX
  8
0
 10
83.2005
 20
21.784
 30
0.0
 40
0.2
 41
0.2
  0
VERTEX
  8
0
 10
83.2005
 20
21.8006
 30
0.0
 40
0.2
 41
0.2
  0
VERTEX
  8
0
 10
83.2005
 20
27.8005
 30
0.0
 40
0.2
 41
0.2
  0
VERTEX
  8
0
 10
83.2005
 20
47.7008
 30
0.0
 40
0.2
 41
0.2
  0
VERTEX
  8
0
 10
83.2005
 20
47.7118
 30
0.0
 40
0.2
 41
0.2
  0
VERTEX
  8
0
 10
83.1854
 20
47.7435
 30
0.0
 40
0.2
 41
0.2
  0
VERTEX
  8
0
 10
83.1617
 20
47.7379
 30
0.0
 40
0.2
 41
0.2
  0
VERTEX
  8
0
 10
83.1578
 20
47.716
 30
0.0
 40
0.2
 41
0.2
  0
VERTEX
  8
0
 10
83.1896
 20
47.7008
 30
0.0
 40
0.2
 41
0.2
  0
VERTEX
  8
0
 10
83.2005
 20
47.7008
 30
0.0
 40
0.2
 41
0.2
  0
VERTEX
  8
0
 10
86.1
 20
47.7008
 30
0.0
 40
0.2
 41
0.2
  0
VERTEX
  8
0
 10
86.1162
 20
47.7008
 30
0.0
 40
0.2
 41
0.2
  0
VERTEX
  8
0
 10
86.1702
 20
47.7298
 30
0.0
 40
0.2
 41
0.2
  0
VERTEX
  8
0
 10
86.2005
 20
47.7834
 30
0.0
 40
0.2
 41
0.2
  0
VERTEX
  8
0
 10
86.2005
 20
47.8
 30
0.0
 40
0.2
 41
0.2
  0
VERTEX
  8
0
 10
86.2005
 20
77.7998
 30
0.0
 40
0.2
 41
0.2
  0
VERTEX
  8
0
 10
86.2005
 20
77.8178
 30
0.0
 40
0.2
 41
0.2
  0
VERTEX
  8
0
 10
86.1702
 20
77.8715
 30
0.0
 40
0.2
 41
0.2
  0
VERTEX
  8
0
 10
86.1162
 20
77.9004
 30
0.0
 40
0.2
 41
0.2
  0
VERTEX
  8
0
 10
86.1
 20
77.9004
 30
0.0
 40
0.2
 41
0.2
  0
VERTEX
  8
0
 10
83.2005
 20
77.9004
 30
0.0
 40
0.2
 41
0.2
  0
VERTEX
  8
0
 10
83.1896
 20
77.9004
 30
0.0
 40
0.2
 41
0.2
  0
VERTEX
  8
0
 10
83.1578
 20
77.8866
 30
0.0
 40
0.2
 41
0.2
  0
VERTEX
  8
0
 10
83.1617
 20
77.8633
 30
0.0
 40
0.2
 41
0.2
  0
VERTEX
  8
0
 10
83.1854
 20
77.8591
 30
0.0
 40
0.2
 41
0.2
  0
VERTEX
  8
0
 10
83.2005
 20
77.8909
 30
0.0
 40
0.2
 41
0.2
  0
VERTEX
  8
0
 10
83.2005
 20
77.9004
 30
0.0
 40
0.2
 41
0.2
  0
VERTEX
  8
0
 10
83.2005
 20
97.7995
 30
0.0
 40
0.2
 41
0.2
  0
VERTEX
  8
0
 10
83.2005
 20
100.799
 30
0.0
 40
0.2
 41
0.2
  0
VERTEX
  8
0
 10
83.2005
 20
100.817
 30
0.0
 40
0.2
 41
0.2
  0
VERTEX
  8
0
 10
83.1744
 20
100.867
 30
0.0
 40
0.2
 41
0.2
  0
VERTEX
  8
0
 10
83.1702
 20
100.871
 30
0.0
 40
0.2
 41
0.2
  0
VERTEX
  8
0
 10
76.3489
 20
107.694
 30
0.0
 40
0.2
 41
0.2
  0
VERTEX
  8
0
 10
76.3404
 20
107.702
 30
0.0
 40
0.2
 41
0.2
  0
VERTEX
  8
0
 10
76.3076
 20
107.714
 30
0.0
 40
0.2
 41
0.2
  0
VERTEX
  8
0
 10
76.2953
 20
107.694
 30
0.0
 40
0.2
 41
0.2
  0
VERTEX
  8
0
 10
76.3076
 20
107.674
 30
0.0
 40
0.2
 41
0.2
  0
VERTEX
  8
0
 10
76.3404
 20
107.687
 30
0.0
 40
0.2
 41
0.2
  0
VERTEX
  8
0
 10
76.3489
 20
107.694
 30
0.0
 40
0.2
 41
0.2
  0
VERTEX
  8
0
 10
78.3978
 20
109.744
 30
0.0
 40
0.2
 41
0.2
  0
VERTEX
  8
0
 10
78.4077
 20
109.754
 30
0.0
 40
0.2
 41
0.2
  0
VERTEX
  8
0
 10
78.4271
 20
109.814
 30
0.0
 40
0.2
 41
0.2
  0
VERTEX
  8
0
 10
78.4077
 20
109.875
 30
0.0
 40
0.2
 41
0.2
  0
VERTEX
  8
0
 10
78.3978
 20
109.885
 30
0.0
 40
0.2
 41
0.2
  0
VERTEX
  8
0
 10
57.186
 20
131.098
 30
0.0
 40
0.2
 41
0.2
  0
VERTEX
  8
0
 10
57.1747
 20
131.109
 30
0.0
 40
0.2
 41
0.2
  0
VERTEX
  8
0
 10
57.114
 20
131.129
 30
0.0
 40
0.2
 41
0.2
  0
VERTEX
  8
0
 10
57.0537
 20
131.109
 30
0.0
 40
0.2
 41
0.2
  0
VERTEX
  8
0
 10
57.0438
 20
131.098
 30
0.0
 40
0.2
 41
0.2
  0
VERTEX
  8
0
 10
54.9935
 20
129.048
 30
0.0
 40
0.2
 41
0.2
  0
VERTEX
  8
0
 10
54.985
 20
129.041
 30
0.0
 40
0.2
 41
0.2
  0
VERTEX
  8
0
 10
54.9727
 20
129.009
 30
0.0
 40
0.2
 41
0.2
  0
VERTEX
  8
0
 10
54.9935
 20
128.995
 30
0.0
 40
0.2
 41
0.2
  0
VERTEX
  8
0
 10
55.0125
 20
129.009
 30
0.0
 40
0.2
 41
0.2
  0
VERTEX
  8
0
 10
55.0002
 20
129.041
 30
0.0
 40
0.2
 41
0.2
  0
VERTEX
  8
0
 10
54.9935
 20
129.048
 30
0.0
 40
0.2
 41
0.2
  0
VERTEX
  8
0
 10
48.1707
 20
135.871
 30
0.0
 40
0.2
 41
0.2
  0
VERTEX
  8
0
 10
48.1612
 20
135.882
 30
0.0
 40
0.2
 41
0.2
  0
VERTEX
  8
0
 10
48.0991
 20
135.901
 30
0.0
 40
0.2
 41
0.2
  0
VERTEX
  8
0
 10
48.0385
 20
135.882
 30
0.0
 40
0.2
 41
0.2
  0
VERTEX
  8
0
 10
48.0289
 20
135.871
 30
0.0
 40
0.2
 41
0.2
  0
VERTEX
  8
0
 10
41.2062
 20
129.048
 30
0.0
 40
0.2
 41
0.2
  0
VERTEX
  8
0
 10
41.1977
 20
129.041
 30
0.0
 40
0.2
 41
0.2
  0
VERTEX
  8
0
 10
41.1854
 20
129.009
 30
0.0
 40
0.2
 41
0.2
  0
VERTEX
  8
0
 10
41.2062
 20
128.995
 30
0.0
 40
0.2
 41
0.2
  0
VERTEX
  8
0
 10
41.2253
 20
129.009
 30
0.0
 40
0.2
 41
0.2
  0
VERTEX
  8
0
 10
41.2129
 20
129.041
 30
0.0
 40
0.2
 41
0.2
  0
VERTEX
  8
0
 10
41.2062
 20
129.048
 30
0.0
 40
0.2
 41
0.2
  0
VERTEX
  8
0
 10
39.1555
 20
131.098
 30
0.0
 40
0.2
 41
0.2
  0
VERTEX
  8
0
 10
39.146
 20
131.109
 30
0.0
 40
0.2
 41
0.2
  0
VERTEX
  8
0
 10
39.0853
 20
131.129
 30
0.0
 40
0.2
 41
0.2
  0
VERTEX
  8
0
 10
39.0246
 20
131.109
 30
0.0
 40
0.2
 41
0.2
  0
VERTEX
  8
0
 10
39.0151
 20
131.098
 30
0.0
 40
0.2
 41
0.2
  0
VERTEX
  8
0
 10
17.8015
 20
109.885
 30
0.0
 40
0.2
 41
0.2
  0
VERTEX
  8
0
 10
17.7919
 20
109.875
 30
0.0
 40
0.2
 41
0.2
  0
VERTEX
  8
0
 10
17.7726
 20
109.814
 30
0.0
 40
0.2
 41
0.2
  0
VERTEX
  8
0
 10
17.7919
 20
109.754
 30
0.0
 40
0.2
 41
0.2
  0
VERTEX
  8
0
 10
17.8015
 20
109.744
 30
0.0
 40
0.2
 41
0.2
  0
VERTEX
  8
0
 10
19.852
 20
107.694
 30
0.0
 40
0.2
 41
0.2
  0
VERTEX
  8
0
 10
19.8589
 20
107.687
 30
0.0
 40
0.2
 41
0.2
  0
VERTEX
  8
0
 10
19.8906
 20
107.674
 30
0.0
 40
0.2
 41
0.2
  0
VERTEX
  8
0
 10
19.9044
 20
107.694
 30
0.0
 40
0.2
 41
0.2
  0
VERTEX
  8
0
 10
19.8906
 20
107.714
 30
0.0
 40
0.2
 41
0.2
  0
VERTEX
  8
0
 10
19.8589
 20
107.702
 30
0.0
 40
0.2
 41
0.2
  0
VERTEX
  8
0
 10
19.852
 20
107.694
 30
0.0
 40
0.2
 41
0.2
  0
VERTEX
  8
0
 10
13.0294
 20
100.871
 30
0.0
 40
0.2
 41
0.2
  0
VERTEX
  8
0
 10
13.0238
 20
100.867
 30
0.0
 40
0.2
 41
0.2
  0
VERTEX
  8
0
 10
13.0004
 20
100.817
 30
0.0
 40
0.2
 41
0.2
  0
VERTEX
  8
0
 10
13.0004
 20
100.799
 30
0.0
 40
0.2
 41
0.2
  0
VERTEX
  8
0
 10
13.0004
 20
97.7995
 30
0.0
 40
0.2
 41
0.2
  0
VERTEX
  8
0
 10
13.0004
 20
77.9004
 30
0.0
 40
0.2
 41
0.2
  0
VERTEX
  8
0
 10
13.0004
 20
77.8909
 30
0.0
 40
0.2
 41
0.2
  0
VERTEX
  8
0
 10
13.0142
 20
77.8591
 30
0.0
 40
0.2
 41
0.2
  0
VERTEX
  8
0
 10
13.0376
 20
77.8633
 30
0.0
 40
0.2
 41
0.2
  0
VERTEX
  8
0
 10
13.0418
 20
77.8866
 30
0.0
 40
0.2
 41
0.2
  0
VERTEX
  8
0
 10
13.0101
 20
77.9004
 30
0.0
 40
0.2
 41
0.2
  0
VERTEX
  8
0
 10
13.0004
 20
77.9004
 30
0.0
 40
0.2
 41
0.2
  0
VERTEX
  8
0
 10
10.0996
 20
77.9004
 30
0.0
 40
0.2
 41
0.2
  0
VERTEX
  8
0
 10
10.0817
 20
77.9004
 30
0.0
 40
0.2
 41
0.2
  0
VERTEX
  8
0
 10
10.0294
 20
77.8715
 30
0.0
 40
0.2
 41
0.2
  0
VERTEX
  8
0
 10
10.0004
 20
77.8178
 30
0.0
 40
0.2
 41
0.2
  0
VERTEX
  8
0
 10
10.0004
 20
77.7998
 30
0.0
 40
0.2
 41
0.2
  0
VERTEX
  8
0
 10
10.0004
 20
47.8
 30
0.0
 40
0.2
 41
0.2
  0
VERTEX
  8
0
 10
10.0004
 20
47.7834
 30
0.0
 40
0.2
 41
0.2
  0
VERTEX
  8
0
 10
10.0294
 20
47.7298
 30
0.0
 40
0.2
 41
0.2
  0
VERTEX
  8
0
 10
10.0817
 20
47.7008
 30
0.0
 40
0.2
 41
0.2
  0
VERTEX
  8
0
 10
10.0996
 20
47.7008
 30
0.0
 40
0.2
 41
0.2
  0
VERTEX
  8
0
 10
13.0004
 20
47.7008
 30
0.0
 40
0.2
 41
0.2
  0
VERTEX
  8
0
 10
13.0101
 20
47.7008
 30
0.0
 40
0.2
 41
0.2
  0
VERTEX
  8
0
 10
13.0418
 20
47.716
 30
0.0
 40
0.2
 41
0.2
  0
VERTEX
  8
0
 10
13.0376
 20
47.7379
 30
0.0
 40
0.2
 41
0.2
  0
VERTEX
  8
0
 10
13.0142
 20
47.7435
 30
0.0
 40
0.2
 41
0.2
  0
VERTEX
  8
0
 10
13.0004
 20
47.7118
 30
0.0
 40
0.2
 41
0.2
  0
VERTEX
  8
0
 10
13.0004
 20
47.7008
 30
0.0
 40
0.2
 41
0.2
  0
VERTEX
  8
0
 10
13.0004
 20
27.8005
 30
0.0
 40
0.2
 41
0.2
  0
VERTEX
  8
0
 10
13.0004
 20
21.8006
 30
0.0
 40
0.2
 41
0.2
  0
VERTEX
  8
0
 10
13.0004
 20
21.784
 30
0.0
 40
0.2
 41
0.2
  0
VERTEX
  8
0
 10
13.0294
 20
21.7303
 30
0.0
 40
0.2
 41
0.2
  0
VERTEX
  8
0
 10
13.0817
 20
21.7
 30
0.0
 40
0.2
 41
0.2
  0
VERTEX
  8
0
 10
13.0996
 20
21.7
 30
0.0
 40
0.2
 41
0.2
  0
SEQEND
 8
0
  0
POLYLINE
  8
0
 62
     5
 66
     1
 10
0
 20
0
 30
0.0
 70
     1
 40
0.566929
 41
0.566929
  0
VERTEX
  8
0
 10
125.8
 20
36.6504
 30
0.0
 40
0.2
 41
0.2
  0
VERTEX
  8
0
 10
102.549
 20
36.6504
 30
0.0
 40
0.2
 41
0.2
  0
VERTEX
  8
0
 10
102.454
 20
36.6504
 30
0.0
 40
0.2
 41
0.2
  0
VERTEX
  8
0
 10
102.169
 20
36.6765
 30
0.0
 40
0.2
 41
0.2
  0
VERTEX
  8
0
 10
101.799
 20
36.7496
 30
0.0
 40
0.2
 41
0.2
  0
VERTEX
  8
0
 10
101.44
 20
36.8709
 30
0.0
 40
0.2
 41
0.2
  0
VERTEX
  8
0
 10
101.181
 20
36.9919
 30
0.0
 40
0.2
 41
0.2
  0
VERTEX
  8
0
 10
101.1
 20
37.0388
 30
0.0
 40
0.2
 41
0.2
  0
VERTEX
  8
0
 10
101.017
 20
37.0872
 30
0.0
 40
0.2
 41
0.2
  0
VERTEX
  8
0
 10
100.783
 20
37.2512
 30
0.0
 40
0.2
 41
0.2
  0
VERTEX
  8
0
 10
100.499
 20
37.5006
 30
0.0
 40
0.2
 41
0.2
  0
VERTEX
  8
0
 10
100.25
 20
37.7843
 30
0.0
 40
0.2
 41
0.2
  0
VERTEX
  8
0
 10
100.086
 20
38.0189
 30
0.0
 40
0.2
 41
0.2
  0
VERTEX
  8
0
 10
100.039
 20
38.1
 30
0.0
 40
0.2
 41
0.2
  0
VERTEX
  8
0
 10
99.9906
 20
38.1826
 30
0.0
 40
0.2
 41
0.2
  0
VERTEX
  8
0
 10
99.8693
 20
38.4418
 30
0.0
 40
0.2
 41
0.2
  0
VERTEX
  8
0
 10
99.7479
 20
38.7999
 30
0.0
 40
0.2
 41
0.2
  0
VERTEX
  8
0
 10
99.6749
 20
39.1707
 30
0.0
 40
0.2
 41
0.2
  0
VERTEX
  8
0
 10
99.6502
 20
39.4561
 30
0.0
 40
0.2
 41
0.2
  0
VERTEX
  8
0
 10
99.6502
 20
39.5496
 30
0.0
 40
0.2
 41
0.2
  0
VERTEX
  8
0
 10
99.6502
 20
86.0503
 30
0.0
 40
0.2
 41
0.2
  0
VERTEX
  8
0
 10
99.6502
 20
86.1452
 30
0.0
 40
0.2
 41
0.2
  0
VERTEX
  8
0
 10
99.6749
 20
86.4306
 30
0.0
 40
0.2
 41
0.2
  0
VERTEX
  8
0
 10
99.7479
 20
86.8013
 30
0.0
 40
0.2
 41
0.2
  0
VERTEX
  8
0
 10
99.8693
 20
87.1594
 30
0.0
 40
0.2
 41
0.2
  0
VERTEX
  8
0
 10
99.9906
 20
87.4187
 30
0.0
 40
0.2
 41
0.2
  0
VERTEX
  8
0
 10
100.039
 20
87.4998
 30
0.0
 40
0.2
 41
0.2
  0
VERTEX
  8
0
 10
100.086
 20
87.5827
 30
0.0
 40
0.2
 41
0.2
  0
VERTEX
  8
0
 10
100.25
 20
87.817
 30
0.0
 40
0.2
 41
0.2
  0
VERTEX
  8
0
 10
100.499
 20
88.1006
 30
0.0
 40
0.2
 41
0.2
  0
VERTEX
  8
0
 10
100.783
 20
88.3514
 30
0.0
 40
0.2
 41
0.2
  0
VERTEX
  8
0
 10
101.017
 20
88.5141
 30
0.0
 40
0.2
 41
0.2
  0
VERTEX
  8
0
 10
101.1
 20
88.561
 30
0.0
 40
0.2
 41
0.2
  0
VERTEX
  8
0
 10
101.181
 20
88.6093
 30
0.0
 40
0.2
 41
0.2
  0
VERTEX
  8
0
 10
101.44
 20
88.7307
 30
0.0
 40
0.2
 41
0.2
  0
VERTEX
  8
0
 10
101.799
 20
88.8517
 30
0.0
 40
0.2
 41
0.2
  0
VERTEX
  8
0
 10
102.169
 20
88.9247
 30
0.0
 40
0.2
 41
0.2
  0
VERTEX
  8
0
 10
102.454
 20
88.9497
 30
0.0
 40
0.2
 41
0.2
  0
VERTEX
  8
0
 10
102.549
 20
88.9497
 30
0.0
 40
0.2
 41
0.2
  0
VERTEX
  8
0
 10
149.05
 20
88.9497
 30
0.0
 40
0.2
 41
0.2
  0
VERTEX
  8
0
 10
149.144
 20
88.9497
 30
0.0
 40
0.2
 41
0.2
  0
VERTEX
  8
0
 10
149.429
 20
88.9247
 30
0.0
 40
0.2
 41
0.2
  0
VERTEX
  8
0
 10
149.8
 20
88.8517
 30
0.0
 40
0.2
 41
0.2
  0
VERTEX
  8
0
 10
150.158
 20
88.7307
 30
0.0
 40
0.2
 41
0.2
  0
VERTEX
  8
0
 10
150.417
 20
88.6093
 30
0.0
 40
0.2
 41
0.2
  0
VERTEX
  8
0
 10
150.5
 20
88.561
 30
0.0
 40
0.2
 41
0.2
  0
VERTEX
  8
0
 10
150.581
 20
88.5141
 30
0.0
 40
0.2
 41
0.2
  0
VERTEX
  8
0
 10
150.815
 20
88.3514
 30
0.0
 40
0.2
 41
0.2
  0
VERTEX
  8
0
 10
151.1
 20
88.1006
 30
0.0
 40
0.2
 41
0.2
  0
VERTEX
  8
0
 10
151.35
 20
87.817
 30
0.0
 40
0.2
 41
0.2
  0
VERTEX
  8
0
 10
151.512
 20
87.5827
 30
0.0
 40
0.2
 41
0.2
  0
VERTEX
  8
0
 10
151.561
 20
87.4998
 30
0.0
 40
0.2
 41
0.2
  0
VERTEX
  8
0
 10
151.608
 20
87.4187
 30
0.0
 40
0.2
 41
0.2
  0
VERTEX
  8
0
 10
151.729
 20
87.1594
 30
0.0
 40
0.2
 41
0.2
  0
VERTEX
  8
0
 10
151.85
 20
86.8013
 30
0.0
 40
0.2
 41
0.2
  0
VERTEX
  8
0
 10
151.923
 20
86.4306
 30
0.0
 40
0.2
 41
0.2
  0
VERTEX
  8
0
 10
151.95
 20
86.1452
 30
0.0
 40
0.2
 41
0.2
  0
VERTEX
  8
0
 10
151.95
 20
86.0503
 30
0.0
 40
0.2
 41
0.2
  0
VERTEX
  8
0
 10
151.95
 20
39.5496
 30
0.0
 40
0.2
 41
0.2
  0
VERTEX
  8
0
 10
151.95
 20
39.4561
 30
0.0
 40
0.2
 41
0.2
  0
VERTEX
  8
0
 10
151.923
 20
39.1707
 30
0.0
 40
0.2
 41
0.2
  0
VERTEX
  8
0
 10
151.85
 20
38.7999
 30
0.0
 40
0.2
 41
0.2
  0
VERTEX
  8
0
 10
151.729
 20
38.4418
 30
0.0
 40
0.2
 41
0.2
  0
VERTEX
  8
0
 10
151.608
 20
38.1826
 30
0.0
 40
0.2
 41
0.2
  0
VERTEX
  8
0
 10
151.561
 20
38.1
 30
0.0
 40
0.2
 41
0.2
  0
VERTEX
  8
0
 10
151.514
 20
38.0189
 30
0.0
 40
0.2
 41
0.2
  0
VERTEX
  8
0
 10
151.35
 20
37.7843
 30
0.0
 40
0.2
 41
0.2
  0
VERTEX
  8
0
 10
151.1
 20
37.5006
 30
0.0
 40
0.2
 41
0.2
  0
VERTEX
  8
0
 10
150.815
 20
37.2512
 30
0.0
 40
0.2
 41
0.2
  0
VERTEX
  8
0
 10
150.581
 20
37.0872
 30
0.0
 40
0.2
 41
0.2
  0
VERTEX
  8
0
 10
150.5
 20
37.0388
 30
0.0
 40
0.2
 41
0.2
  0
VERTEX
  8
0
 10
150.417
 20
36.9919
 30
0.0
 40
0.2
 41
0.2
  0
VERTEX
  8
0
 10
150.158
 20
36.8709
 30
0.0
 40
0.2
 41
0.2
  0
VERTEX
  8
0
 10
149.8
 20
36.7496
 30
0.0
 40
0.2
 41
0.2
  0
VERTEX
  8
0
 10
149.429
 20
36.6765
 30
0.0
 40
0.2
 41
0.2
  0
VERTEX
  8
0
 10
149.144
 20
36.6504
 30
0.0
 40
0.2
 41
0.2
  0
VERTEX
  8
0
 10
149.05
 20
36.6504
 30
0.0
 40
0.2
 41
0.2
  0
VERTEX
  8
0
 10
125.8
 20
36.6504
 30
0.0
 40
0.2
 41
0.2
  0
SEQEND
 8
0
  0
POLYLINE
  8
0
 62
     5
 66
     1
 10
0
 20
0
 30
0.0
 70
     1
 40
0.566929
 41
0.566929
  0
VERTEX
  8
0
 10
125.8
 20
24.8998
 30
0.0
 40
0.2
 41
0.2
  0
VERTEX
  8
0
 10
110.9
 20
24.8998
 30
0.0
 40
0.2
 41
0.2
  0
VERTEX
  8
0
 10
110.889
 20
24.8998
 30
0.0
 40
0.2
 41
0.2
  0
VERTEX
  8
0
 10
110.858
 20
24.886
 30
0.0
 40
0.2
 41
0.2
  0
VERTEX
  8
0
 10
110.862
 20
24.8626
 30
0.0
 40
0.2
 41
0.2
  0
VERTEX
  8
0
 10
110.885
 20
24.8584
 30
0.0
 40
0.2
 41
0.2
  0
VERTEX
  8
0
 10
110.9
 20
24.8901
 30
0.0
 40
0.2
 41
0.2
  0
VERTEX
  8
0
 10
110.9
 20
24.8998
 30
0.0
 40
0.2
 41
0.2
  0
VERTEX
  8
0
 10
110.9
 20
27.6999
 30
0.0
 40
0.2
 41
0.2
  0
VERTEX
  8
0
 10
110.9
 20
27.711
 30
0.0
 40
0.2
 41
0.2
  0
VERTEX
  8
0
 10
110.885
 20
27.7427
 30
0.0
 40
0.2
 41
0.2
  0
VERTEX
  8
0
 10
110.862
 20
27.7385
 30
0.0
 40
0.2
 41
0.2
  0
VERTEX
  8
0
 10
110.858
 20
27.7151
 30
0.0
 40
0.2
 41
0.2
  0
VERTEX
  8
0
 10
110.889
 20
27.6999
 30
0.0
 40
0.2
 41
0.2
  0
VERTEX
  8
0
 10
110.9
 20
27.6999
 30
0.0
 40
0.2
 41
0.2
  0
VERTEX
  8
0
 10
140.7
 20
27.6999
 30
0.0
 40
0.2
 41
0.2
  0
VERTEX
  8
0
 10
140.71
 20
27.6999
 30
0.0
 40
0.2
 41
0.2
  0
VERTEX
  8
0
 10
140.742
 20
27.7151
 30
0.0
 40
0.2
 41
0.2
  0
VERTEX
  8
0
 10
140.738
 20
27.7385
 30
0.0
 40
0.2
 41
0.2
  0
VERTEX
  8
0
 10
140.714
 20
27.7427
 30
0.0
 40
0.2
 41
0.2
  0
VERTEX
  8
0
 10
140.7
 20
27.711
 30
0.0
 40
0.2
 41
0.2
  0
VERTEX
  8
0
 10
140.7
 20
27.6999
 30
0.0
 40
0.2
 41
0.2
  0
VERTEX
  8
0
 10
140.7
 20
24.8998
 30
0.0
 40
0.2
 41
0.2
  0
VERTEX
  8
0
 10
140.7
 20
24.8901
 30
0.0
 40
0.2
 41
0.2
  0
VERTEX
  8
0
 10
140.714
 20
24.8584
 30
0.0
 40
0.2
 41
0.2
  0
VERTEX
  8
0
 10
140.738
 20
24.8626
 30
0.0
 40
0.2
 41
0.2
  0
VERTEX
  8
0
 10
140.742
 20
24.886
 30
0.0
 40
0.2
 41
0.2
  0
VERTEX
  8
0
 10
140.71
 20
24.8998
 30
0.0
 40
0.2
 41
0.2
  0
VERTEX
  8
0
 10
140.7
 20
24.8998
 30
0.0
 40
0.2
 41
0.2
  0
VERTEX
  8
0
 10
125.8
 20
24.8998
 30
0.0
 40
0.2
 41
0.2
  0
SEQEND
 8
0
  0
POLYLINE
  8
0
 62
     0
 66
     1
 10
0
 20
0
 30
0.0
 70
     1
 40
0.566929
 41
0.566929
  0
VERTEX
  8
0
 10
90.8004
 20
21.7
 30
0.0
 40
0.2
 41
0.2
  0
VERTEX
  8
0
 10
160.801
 20
21.7
 30
0.0
 40
0.2
 41
0.2
  0
VERTEX
  8
0
 10
160.817
 20
21.7
 30
0.0
 40
0.2
 41
0.2
  0
VERTEX
  8
0
 10
160.871
 20
21.7303
 30
0.0
 40
0.2
 41
0.2
  0
VERTEX
  8
0
 10
160.9
 20
21.784
 30
0.0
 40
0.2
 41
0.2
  0
VERTEX
  8
0
 10
160.9
 20
21.8006
 30
0.0
 40
0.2
 41
0.2
  0
VERTEX
  8
0
 10
160.9
 20
27.8005
 30
0.0
 40
0.2
 41
0.2
  0
VERTEX
  8
0
 10
160.9
 20
47.7008
 30
0.0
 40
0.2
 41
0.2
  0
VERTEX
  8
0
 10
160.9
 20
47.7118
 30
0.0
 40
0.2
 41
0.2
  0
VERTEX
  8
0
 10
160.885
 20
47.7435
 30
0.0
 40
0.2
 41
0.2
  0
VERTEX
  8
0
 10
160.862
 20
47.7379
 30
0.0
 40
0.2
 41
0.2
  0
VERTEX
  8
0
 10
160.857
 20
47.716
 30
0.0
 40
0.2
 41
0.2
  0
VERTEX
  8
0
 10
160.889
 20
47.7008
 30
0.0
 40
0.2
 41
0.2
  0
VERTEX
  8
0
 10
160.9
 20
47.7008
 30
0.0
 40
0.2
 41
0.2
  0
VERTEX
  8
0
 10
163.8
 20
47.7008
 30
0.0
 40
0.2
 41
0.2
  0
VERTEX
  8
0
 10
163.817
 20
47.7008
 30
0.0
 40
0.2
 41
0.2
  0
VERTEX
  8
0
 10
163.871
 20
47.7298
 30
0.0
 40
0.2
 41
0.2
  0
VERTEX
  8
0
 10
163.9
 20
47.7834
 30
0.0
 40
0.2
 41
0.2
  0
VERTEX
  8
0
 10
163.9
 20
47.8
 30
0.0
 40
0.2
 41
0.2
  0
VERTEX
  8
0
 10
163.9
 20
77.7998
 30
0.0
 40
0.2
 41
0.2
  0
VERTEX
  8
0
 10
163.9
 20
77.8178
 30
0.0
 40
0.2
 41
0.2
  0
VERTEX
  8
0
 10
163.871
 20
77.8715
 30
0.0
 40
0.2
 41
0.2
  0
VERTEX
  8
0
 10
163.817
 20
77.9004
 30
0.0
 40
0.2
 41
0.2
  0
VERTEX
  8
0
 10
163.8
 20
77.9004
 30
0.0
 40
0.2
 41
0.2
  0
VERTEX
  8
0
 10
160.9
 20
77.9004
 30
0.0
 40
0.2
 41
0.2
  0
VERTEX
  8
0
 10
160.889
 20
77.9004
 30
0.0
 40
0.2
 41
0.2
  0
VERTEX
  8
0
 10
160.857
 20
77.8866
 30
0.0
 40
0.2
 41
0.2
  0
VERTEX
  8
0
 10
160.862
 20
77.8633
 30
0.0
 40
0.2
 41
0.2
  0
VERTEX
  8
0
 10
160.885
 20
77.8591
 30
0.0
 40
0.2
 41
0.2
  0
VERTEX
  8
0
 10
160.9
 20
77.8909
 30
0.0
 40
0.2
 41
0.2
  0
VERTEX
  8
0
 10
160.9
 20
77.9004
 30
0.0
 40
0.2
 41
0.2
  0
VERTEX
  8
0
 10
160.9
 20
97.7995
 30
0.0
 40
0.2
 41
0.2
  0
VERTEX
  8
0
 10
160.9
 20
100.799
 30
0.0
 40
0.2
 41
0.2
  0
VERTEX
  8
0
 10
160.9
 20
100.817
 30
0.0
 40
0.2
 41
0.2
  0
VERTEX
  8
0
 10
160.875
 20
100.867
 30
0.0
 40
0.2
 41
0.2
  0
VERTEX
  8
0
 10
160.871
 20
100.871
 30
0.0
 40
0.2
 41
0.2
  0
VERTEX
  8
0
 10
154.048
 20
107.694
 30
0.0
 40
0.2
 41
0.2
  0
VERTEX
  8
0
 10
154.04
 20
107.702
 30
0.0
 40
0.2
 41
0.2
  0
VERTEX
  8
0
 10
154.008
 20
107.714
 30
0.0
 40
0.2
 41
0.2
  0
VERTEX
  8
0
 10
153.995
 20
107.694
 30
0.0
 40
0.2
 41
0.2
  0
VERTEX
  8
0
 10
154.008
 20
107.674
 30
0.0
 40
0.2
 41
0.2
  0
VERTEX
  8
0
 10
154.04
 20
107.687
 30
0.0
 40
0.2
 41
0.2
  0
VERTEX
  8
0
 10
154.048
 20
107.694
 30
0.0
 40
0.2
 41
0.2
  0
VERTEX
  8
0
 10
156.099
 20
109.744
 30
0.0
 40
0.2
 41
0.2
  0
VERTEX
  8
0
 10
156.108
 20
109.754
 30
0.0
 40
0.2
 41
0.2
  0
VERTEX
  8
0
 10
156.127
 20
109.814
 30
0.0
 40
0.2
 41
0.2
  0
VERTEX
  8
0
 10
156.108
 20
109.875
 30
0.0
 40
0.2
 41
0.2
  0
VERTEX
  8
0
 10
156.099
 20
109.885
 30
0.0
 40
0.2
 41
0.2
  0
VERTEX
  8
0
 10
134.885
 20
131.098
 30
0.0
 40
0.2
 41
0.2
  0
VERTEX
  8
0
 10
134.875
 20
131.109
 30
0.0
 40
0.2
 41
0.2
  0
VERTEX
  8
0
 10
134.815
 20
131.129
 30
0.0
 40
0.2
 41
0.2
  0
VERTEX
  8
0
 10
134.754
 20
131.109
 30
0.0
 40
0.2
 41
0.2
  0
VERTEX
  8
0
 10
134.745
 20
131.098
 30
0.0
 40
0.2
 41
0.2
  0
VERTEX
  8
0
 10
132.694
 20
129.048
 30
0.0
 40
0.2
 41
0.2
  0
VERTEX
  8
0
 10
132.686
 20
129.041
 30
0.0
 40
0.2
 41
0.2
  0
VERTEX
  8
0
 10
132.673
 20
129.009
 30
0.0
 40
0.2
 41
0.2
  0
VERTEX
  8
0
 10
132.693
 20
128.995
 30
0.0
 40
0.2
 41
0.2
  0
VERTEX
  8
0
 10
132.713
 20
129.009
 30
0.0
 40
0.2
 41
0.2
  0
VERTEX
  8
0
 10
132.701
 20
129.041
 30
0.0
 40
0.2
 41
0.2
  0
VERTEX
  8
0
 10
132.694
 20
129.048
 30
0.0
 40
0.2
 41
0.2
  0
VERTEX
  8
0
 10
125.871
 20
135.871
 30
0.0
 40
0.2
 41
0.2
  0
VERTEX
  8
0
 10
125.861
 20
135.882
 30
0.0
 40
0.2
 41
0.2
  0
VERTEX
  8
0
 10
125.8
 20
135.901
 30
0.0
 40
0.2
 41
0.2
  0
VERTEX
  8
0
 10
125.739
 20
135.882
 30
0.0
 40
0.2
 41
0.2
  0
VERTEX
  8
0
 10
125.729
 20
135.871
 30
0.0
 40
0.2
 41
0.2
  0
VERTEX
  8
0
 10
118.907
 20
129.048
 30
0.0
 40
0.2
 41
0.2
  0
VERTEX
  8
0
 10
118.898
 20
129.041
 30
0.0
 40
0.2
 41
0.2
  0
VERTEX
  8
0
 10
118.886
 20
129.009
 30
0.0
 40
0.2
 41
0.2
  0
VERTEX
  8
0
 10
118.907
 20
128.995
 30
0.0
 40
0.2
 41
0.2
  0
VERTEX
  8
0
 10
118.926
 20
129.009
 30
0.0
 40
0.2
 41
0.2
  0
VERTEX
  8
0
 10
118.914
 20
129.041
 30
0.0
 40
0.2
 41
0.2
  0
VERTEX
  8
0
 10
118.907
 20
129.048
 30
0.0
 40
0.2
 41
0.2
  0
VERTEX
  8
0
 10
116.856
 20
131.098
 30
0.0
 40
0.2
 41
0.2
  0
VERTEX
  8
0
 10
116.847
 20
131.109
 30
0.0
 40
0.2
 41
0.2
  0
VERTEX
  8
0
 10
116.785
 20
131.129
 30
0.0
 40
0.2
 41
0.2
  0
VERTEX
  8
0
 10
116.724
 20
131.109
 30
0.0
 40
0.2
 41
0.2
  0
VERTEX
  8
0
 10
116.714
 20
131.098
 30
0.0
 40
0.2
 41
0.2
  0
VERTEX
  8
0
 10
95.5022
 20
109.885
 30
0.0
 40
0.2
 41
0.2
  0
VERTEX
  8
0
 10
95.4913
 20
109.875
 30
0.0
 40
0.2
 41
0.2
  0
VERTEX
  8
0
 10
95.4719
 20
109.814
 30
0.0
 40
0.2
 41
0.2
  0
VERTEX
  8
0
 10
95.4913
 20
109.754
 30
0.0
 40
0.2
 41
0.2
  0
VERTEX
  8
0
 10
95.5022
 20
109.744
 30
0.0
 40
0.2
 41
0.2
  0
VERTEX
  8
0
 10
97.5512
 20
107.694
 30
0.0
 40
0.2
 41
0.2
  0
VERTEX
  8
0
 10
97.5582
 20
107.687
 30
0.0
 40
0.2
 41
0.2
  0
VERTEX
  8
0
 10
97.5914
 20
107.674
 30
0.0
 40
0.2
 41
0.2
  0
VERTEX
  8
0
 10
97.6051
 20
107.694
 30
0.0
 40
0.2
 41
0.2
  0
VERTEX
  8
0
 10
97.5914
 20
107.714
 30
0.0
 40
0.2
 41
0.2
  0
VERTEX
  8
0
 10
97.5582
 20
107.702
 30
0.0
 40
0.2
 41
0.2
  0
VERTEX
  8
0
 10
97.5512
 20
107.694
 30
0.0
 40
0.2
 41
0.2
  0
VERTEX
  8
0
 10
90.7288
 20
100.871
 30
0.0
 40
0.2
 41
0.2
  0
VERTEX
  8
0
 10
90.7232
 20
100.867
 30
0.0
 40
0.2
 41
0.2
  0
VERTEX
  8
0
 10
90.6999
 20
100.817
 30
0.0
 40
0.2
 41
0.2
  0
VERTEX
  8
0
 10
90.6999
 20
100.799
 30
0.0
 40
0.2
 41
0.2
  0
VERTEX
  8
0
 10
90.6999
 20
97.7995
 30
0.0
 40
0.2
 41
0.2
  0
VERTEX
  8
0
 10
90.6999
 20
77.9004
 30
0.0
 40
0.2
 41
0.2
  0
VERTEX
  8
0
 10
90.6999
 20
77.8909
 30
0.0
 40
0.2
 41
0.2
  0
VERTEX
  8
0
 10
90.7136
 20
77.8591
 30
0.0
 40
0.2
 41
0.2
  0
VERTEX
  8
0
 10
90.7369
 20
77.8633
 30
0.0
 40
0.2
 41
0.2
  0
VERTEX
  8
0
 10
90.7411
 20
77.8866
 30
0.0
 40
0.2
 41
0.2
  0
VERTEX
  8
0
 10
90.7094
 20
77.9004
 30
0.0
 40
0.2
 41
0.2
  0
VERTEX
  8
0
 10
90.6999
 20
77.9004
 30
0.0
 40
0.2
 41
0.2
  0
VERTEX
  8
0
 10
87.8004
 20
77.9004
 30
0.0
 40
0.2
 41
0.2
  0
VERTEX
  8
0
 10
87.7824
 20
77.9004
 30
0.0
 40
0.2
 41
0.2
  0
VERTEX
  8
0
 10
87.7288
 20
77.8715
 30
0.0
 40
0.2
 41
0.2
  0
VERTEX
  8
0
 10
87.6999
 20
77.8178
 30
0.0
 40
0.2
 41
0.2
  0
VERTEX
  8
0
 10
87.6999
 20
77.7998
 30
0.0
 40
0.2
 41
0.2
  0
VERTEX
  8
0
 10
87.6999
 20
47.8
 30
0.0
 40
0.2
 41
0.2
  0
VERTEX
  8
0
 10
87.6999
 20
47.7834
 30
0.0
 40
0.2
 41
0.2
  0
VERTEX
  8
0
 10
87.7288
 20
47.7298
 30
0.0
 40
0.2
 41
0.2
  0
VERTEX
  8
0
 10
87.7824
 20
47.7008
 30
0.0
 40
0.2
 41
0.2
  0
VERTEX
  8
0
 10
87.8004
 20
47.7008
 30
0.0
 40
0.2
 41
0.2
  0
VERTEX
  8
0
 10
90.6999
 20
47.7008
 30
0.0
 40
0.2
 41
0.2
  0
VERTEX
  8
0
 10
90.7094
 20
47.7008
 30
0.0
 40
0.2
 41
0.2
  0
VERTEX
  8
0
 10
90.7411
 20
47.716
 30
0.0
 40
0.2
 41
0.2
  0
VERTEX
  8
0
 10
90.7369
 20
47.7379
 30
0.0
 40
0.2
 41
0.2
  0
VERTEX
  8
0
 10
90.7136
 20
47.7435
 30
0.0
 40
0.2
 41
0.2
  0
VERTEX
  8
0
 10
90.6999
 20
47.7118
 30
0.0
 40
0.2
 41
0.2
  0
VERTEX
  8
0
 10
90.6999
 20
47.7008
 30
0.0
 40
0.2
 41
0.2
  0
VERTEX
  8
0
 10
90.6999
 20
27.8005
 30
0.0
 40
0.2
 41
0.2
  0
VERTEX
  8
0
 10
90.6999
 20
21.8006
 30
0.0
 40
0.2
 41
0.2
  0
VERTEX
  8
0
 10
90.6999
 20
21.784
 30
0.0
 40
0.2
 41
0.2
  0
VERTEX
  8
0
 10
90.7288
 20
21.7303
 30
0.0
 40
0.2
 41
0.2
  0
VERTEX
  8
0
 10
90.7824
 20
21.7
 30
0.0
 40
0.2
 41
0.2
  0
VERTEX
  8
0
 10
90.8004
 20
21.7
 30
0.0
 40
0.2
 41
0.2
  0
SEQEND
 8
0
  0
POLYLINE
  8
0
 62
     5
 66
     1
 10
0
 20
0
 30
0.0
 70
     1
 40
0.566929
 41
0.566929
  0
VERTEX
  8
0
 10
203.501
 20
36.6504
 30
0.0
 40
0.2
 41
0.2
  0
VERTEX
  8
0
 10
180.25
 20
36.6504
 30
0.0
 40
0.2
 41
0.2
  0
VERTEX
  8
0
 10
180.155
 20
36.6504
 30
0.0
 40
0.2
 41
0.2
  0
VERTEX
  8
0
 10
179.87
 20
36.6765
 30
0.0
 40
0.2
 41
0.2
  0
VERTEX
  8
0
 10
179.499
 20
36.7496
 30
0.0
 40
0.2
 41
0.2
  0
VERTEX
  8
0
 10
179.141
 20
36.8709
 30
0.0
 40
0.2
 41
0.2
  0
VERTEX
  8
0
 10
178.882
 20
36.9919
 30
0.0
 40
0.2
 41
0.2
  0
VERTEX
  8
0
 10
178.8
 20
37.0388
 30
0.0
 40
0.2
 41
0.2
  0
VERTEX
  8
0
 10
178.718
 20
37.0872
 30
0.0
 40
0.2
 41
0.2
  0
VERTEX
  8
0
 10
178.484
 20
37.2512
 30
0.0
 40
0.2
 41
0.2
  0
VERTEX
  8
0
 10
178.198
 20
37.5006
 30
0.0
 40
0.2
 41
0.2
  0
VERTEX
  8
0
 10
177.949
 20
37.7843
 30
0.0
 40
0.2
 41
0.2
  0
VERTEX
  8
0
 10
177.785
 20
38.0189
 30
0.0
 40
0.2
 41
0.2
  0
VERTEX
  8
0
 10
177.738
 20
38.1
 30
0.0
 40
0.2
 41
0.2
  0
VERTEX
  8
0
 10
177.69
 20
38.1826
 30
0.0
 40
0.2
 41
0.2
  0
VERTEX
  8
0
 10
177.57
 20
38.4418
 30
0.0
 40
0.2
 41
0.2
  0
VERTEX
  8
0
 10
177.449
 20
38.7999
 30
0.0
 40
0.2
 41
0.2
  0
VERTEX
  8
0
 10
177.374
 20
39.1707
 30
0.0
 40
0.2
 41
0.2
  0
VERTEX
  8
0
 10
177.35
 20
39.4561
 30
0.0
 40
0.2
 41
0.2
  0
VERTEX
  8
0
 10
177.35
 20
39.5496
 30
0.0
 40
0.2
 41
0.2
  0
VERTEX
  8
0
 10
177.35
 20
86.0503
 30
0.0
 40
0.2
 41
0.2
  0
VERTEX
  8
0
 10
177.35
 20
86.1452
 30
0.0
 40
0.2
 41
0.2
  0
VERTEX
  8
0
 10
177.374
 20
86.4306
 30
0.0
 40
0.2
 41
0.2
  0
VERTEX
  8
0
 10
177.449
 20
86.8013
 30
0.0
 40
0.2
 41
0.2
  0
VERTEX
  8
0
 10
177.57
 20
87.1594
 30
0.0
 40
0.2
 41
0.2
  0
VERTEX
  8
0
 10
177.69
 20
87.4187
 30
0.0
 40
0.2
 41
0.2
  0
VERTEX
  8
0
 10
177.738
 20
87.4998
 30
0.0
 40
0.2
 41
0.2
  0
VERTEX
  8
0
 10
177.785
 20
87.5827
 30
0.0
 40
0.2
 41
0.2
  0
VERTEX
  8
0
 10
177.949
 20
87.817
 30
0.0
 40
0.2
 41
0.2
  0
VERTEX
  8
0
 10
178.198
 20
88.1006
 30
0.0
 40
0.2
 41
0.2
  0
VERTEX
  8
0
 10
178.484
 20
88.3514
 30
0.0
 40
0.2
 41
0.2
  0
VERTEX
  8
0
 10
178.718
 20
88.5141
 30
0.0
 40
0.2
 41
0.2
  0
VERTEX
  8
0
 10
178.8
 20
88.561
 30
0.0
 40
0.2
 41
0.2
  0
VERTEX
  8
0
 10
178.882
 20
88.6093
 30
0.0
 40
0.2
 41
0.2
  0
VERTEX
  8
0
 10
179.141
 20
88.7307
 30
0.0
 40
0.2
 41
0.2
  0
VERTEX
  8
0
 10
179.499
 20
88.8517
 30
0.0
 40
0.2
 41
0.2
  0
VERTEX
  8
0
 10
179.87
 20
88.9247
 30
0.0
 40
0.2
 41
0.2
  0
VERTEX
  8
0
 10
180.155
 20
88.9497
 30
0.0
 40
0.2
 41
0.2
  0
VERTEX
  8
0
 10
180.25
 20
88.9497
 30
0.0
 40
0.2
 41
0.2
  0
VERTEX
  8
0
 10
226.751
 20
88.9497
 30
0.0
 40
0.2
 41
0.2
  0
VERTEX
  8
0
 10
226.844
 20
88.9497
 30
0.0
 40
0.2
 41
0.2
  0
VERTEX
  8
0
 10
227.13
 20
88.9247
 30
0.0
 40
0.2
 41
0.2
  0
VERTEX
  8
0
 10
227.5
 20
88.8517
 30
0.0
 40
0.2
 41
0.2
  0
VERTEX
  8
0
 10
227.858
 20
88.7307
 30
0.0
 40
0.2
 41
0.2
  0
VERTEX
  8
0
 10
228.118
 20
88.6093
 30
0.0
 40
0.2
 41
0.2
  0
VERTEX
  8
0
 10
228.2
 20
88.561
 30
0.0
 40
0.2
 41
0.2
  0
VERTEX
  8
0
 10
228.282
 20
88.5141
 30
0.0
 40
0.2
 41
0.2
  0
VERTEX
  8
0
 10
228.516
 20
88.3514
 30
0.0
 40
0.2
 41
0.2
  0
VERTEX
  8
0
 10
228.8
 20
88.1006
 30
0.0
 40
0.2
 41
0.2
  0
VERTEX
  8
0
 10
229.049
 20
87.817
 30
0.0
 40
0.2
 41
0.2
  0
VERTEX
  8
0
 10
229.213
 20
87.5827
 30
0.0
 40
0.2
 41
0.2
  0
VERTEX
  8
0
 10
229.261
 20
87.4998
 30
0.0
 40
0.2
 41
0.2
  0
VERTEX
  8
0
 10
229.308
 20
87.4187
 30
0.0
 40
0.2
 41
0.2
  0
VERTEX
  8
0
 10
229.43
 20
87.1594
 30
0.0
 40
0.2
 41
0.2
  0
VERTEX
  8
0
 10
229.551
 20
86.8013
 30
0.0
 40
0.2
 41
0.2
  0
VERTEX
  8
0
 10
229.624
 20
86.4306
 30
0.0
 40
0.2
 41
0.2
  0
VERTEX
  8
0
 10
229.65
 20
86.1452
 30
0.0
 40
0.2
 41
0.2
  0
VERTEX
  8
0
 10
229.65
 20
86.0503
 30
0.0
 40
0.2
 41
0.2
  0
VERTEX
  8
0
 10
229.65
 20
39.5496
 30
0.0
 40
0.2
 41
0.2
  0
VERTEX
  8
0
 10
229.65
 20
39.4561
 30
0.0
 40
0.2
 41
0.2
  0
VERTEX
  8
0
 10
229.624
 20
39.1707
 30
0.0
 40
0.2
 41
0.2
  0
VERTEX
  8
0
 10
229.551
 20
38.7999
 30
0.0
 40
0.2
 41
0.2
  0
VERTEX
  8
0
 10
229.43
 20
38.4418
 30
0.0
 40
0.2
 41
0.2
  0
VERTEX
  8
0
 10
229.308
 20
38.1826
 30
0.0
 40
0.2
 41
0.2
  0
VERTEX
  8
0
 10
229.261
 20
38.1
 30
0.0
 40
0.2
 41
0.2
  0
VERTEX
  8
0
 10
229.213
 20
38.0189
 30
0.0
 40
0.2
 41
0.2
  0
VERTEX
  8
0
 10
229.049
 20
37.7843
 30
0.0
 40
0.2
 41
0.2
  0
VERTEX
  8
0
 10
228.8
 20
37.5006
 30
0.0
 40
0.2
 41
0.2
  0
VERTEX
  8
0
 10
228.516
 20
37.2512
 30
0.0
 40
0.2
 41
0.2
  0
VERTEX
  8
0
 10
228.282
 20
37.0872
 30
0.0
 40
0.2
 41
0.2
  0
VERTEX
  8
0
 10
228.2
 20
37.0388
 30
0.0
 40
0.2
 41
0.2
  0
VERTEX
  8
0
 10
228.118
 20
36.9919
 30
0.0
 40
0.2
 41
0.2
  0
VERTEX
  8
0
 10
227.858
 20
36.8709
 30
0.0
 40
0.2
 41
0.2
  0
VERTEX
  8
0
 10
227.5
 20
36.7496
 30
0.0
 40
0.2
 41
0.2
  0
VERTEX
  8
0
 10
227.13
 20
36.6765
 30
0.0
 40
0.2
 41
0.2
  0
VERTEX
  8
0
 10
226.844
 20
36.6504
 30
0.0
 40
0.2
 41
0.2
  0
VERTEX
  8
0
 10
226.751
 20
36.6504
 30
0.0
 40
0.2
 41
0.2
  0
VERTEX
  8
0
 10
203.501
 20
36.6504
 30
0.0
 40
0.2
 41
0.2
  0
SEQEND
 8
0
  0
POLYLINE
  8
0
 62
     5
 66
     1
 10
0
 20
0
 30
0.0
 70
     1
 40
0.566929
 41
0.566929
  0
VERTEX
  8
0
 10
203.501
 20
24.8998
 30
0.0
 40
0.2
 41
0.2
  0
VERTEX
  8
0
 10
188.6
 20
24.8998
 30
0.0
 40
0.2
 41
0.2
  0
VERTEX
  8
0
 10
188.589
 20
24.8998
 30
0.0
 40
0.2
 41
0.2
  0
VERTEX
  8
0
 10
188.557
 20
24.886
 30
0.0
 40
0.2
 41
0.2
  0
VERTEX
  8
0
 10
188.563
 20
24.8626
 30
0.0
 40
0.2
 41
0.2
  0
VERTEX
  8
0
 10
188.584
 20
24.8584
 30
0.0
 40
0.2
 41
0.2
  0
VERTEX
  8
0
 10
188.6
 20
24.8901
 30
0.0
 40
0.2
 41
0.2
  0
VERTEX
  8
0
 10
188.6
 20
24.8998
 30
0.0
 40
0.2
 41
0.2
  0
VERTEX
  8
0
 10
188.6
 20
27.6999
 30
0.0
 40
0.2
 41
0.2
  0
VERTEX
  8
0
 10
188.6
 20
27.711
 30
0.0
 40
0.2
 41
0.2
  0
VERTEX
  8
0
 10
188.584
 20
27.7427
 30
0.0
 40
0.2
 41
0.2
  0
VERTEX
  8
0
 10
188.563
 20
27.7385
 30
0.0
 40
0.2
 41
0.2
  0
VERTEX
  8
0
 10
188.557
 20
27.7151
 30
0.0
 40
0.2
 41
0.2
  0
VERTEX
  8
0
 10
188.589
 20
27.6999
 30
0.0
 40
0.2
 41
0.2
  0
VERTEX
  8
0
 10
188.6
 20
27.6999
 30
0.0
 40
0.2
 41
0.2
  0
VERTEX
  8
0
 10
218.4
 20
27.6999
 30
0.0
 40
0.2
 41
0.2
  0
VERTEX
  8
0
 10
218.409
 20
27.6999
 30
0.0
 40
0.2
 41
0.2
  0
VERTEX
  8
0
 10
218.441
 20
27.7151
 30
0.0
 40
0.2
 41
0.2
  0
VERTEX
  8
0
 10
218.437
 20
27.7385
 30
0.0
 40
0.2
 41
0.2
  0
VERTEX
  8
0
 10
218.414
 20
27.7427
 30
0.0
 40
0.2
 41
0.2
  0
VERTEX
  8
0
 10
218.4
 20
27.711
 30
0.0
 40
0.2
 41
0.2
  0
VERTEX
  8
0
 10
218.4
 20
27.6999
 30
0.0
 40
0.2
 41
0.2
  0
VERTEX
  8
0
 10
218.4
 20
24.8998
 30
0.0
 40
0.2
 41
0.2
  0
VERTEX
  8
0
 10
218.4
 20
24.8901
 30
0.0
 40
0.2
 41
0.2
  0
VERTEX
  8
0
 10
218.414
 20
24.8584
 30
0.0
 40
0.2
 41
0.2
  0
VERTEX
  8
0
 10
218.437
 20
24.8626
 30
0.0
 40
0.2
 41
0.2
  0
VERTEX
  8
0
 10
218.441
 20
24.886
 30
0.0
 40
0.2
 41
0.2
  0
VERTEX
  8
0
 10
218.409
 20
24.8998
 30
0.0
 40
0.2
 41
0.2
  0
VERTEX
  8
0
 10
218.4
 20
24.8998
 30
0.0
 40
0.2
 41
0.2
  0
VERTEX
  8
0
 10
203.501
 20
24.8998
 30
0.0
 40
0.2
 41
0.2
  0
SEQEND
 8
0
  0
POLYLINE
  8
0
 62
     0
 66
     1
 10
0
 20
0
 30
0.0
 70
     1
 40
0.566929
 41
0.566929
  0
VERTEX
  8
0
 10
168.5
 20
21.7
 30
0.0
 40
0.2
 41
0.2
  0
VERTEX
  8
0
 10
238.5
 20
21.7
 30
0.0
 40
0.2
 41
0.2
  0
VERTEX
  8
0
 10
241.5
 20
21.7
 30
0.0
 40
0.2
 41
0.2
  0
VERTEX
  8
0
 10
241.516
 20
21.7
 30
0.0
 40
0.2
 41
0.2
  0
VERTEX
  8
0
 10
241.57
 20
21.7303
 30
0.0
 40
0.2
 41
0.2
  0
VERTEX
  8
0
 10
241.601
 20
21.784
 30
0.0
 40
0.2
 41
0.2
  0
VERTEX
  8
0
 10
241.601
 20
21.8006
 30
0.0
 40
0.2
 41
0.2
  0
VERTEX
  8
0
 10
241.601
 20
27.8005
 30
0.0
 40
0.2
 41
0.2
  0
VERTEX
  8
0
 10
241.601
 20
47.8
 30
0.0
 40
0.2
 41
0.2
  0
VERTEX
  8
0
 10
241.601
 20
47.818
 30
0.0
 40
0.2
 41
0.2
  0
VERTEX
  8
0
 10
241.57
 20
47.8716
 30
0.0
 40
0.2
 41
0.2
  0
VERTEX
  8
0
 10
241.516
 20
47.9005
 30
0.0
 40
0.2
 41
0.2
  0
VERTEX
  8
0
 10
241.5
 20
47.9005
 30
0.0
 40
0.2
 41
0.2
  0
VERTEX
  8
0
 10
238.601
 20
47.9005
 30
0.0
 40
0.2
 41
0.2
  0
VERTEX
  8
0
 10
238.589
 20
47.9005
 30
0.0
 40
0.2
 41
0.2
  0
VERTEX
  8
0
 10
238.558
 20
47.8868
 30
0.0
 40
0.2
 41
0.2
  0
VERTEX
  8
0
 10
238.562
 20
47.8635
 30
0.0
 40
0.2
 41
0.2
  0
VERTEX
  8
0
 10
238.585
 20
47.8592
 30
0.0
 40
0.2
 41
0.2
  0
VERTEX
  8
0
 10
238.601
 20
47.891
 30
0.0
 40
0.2
 41
0.2
  0
VERTEX
  8
0
 10
238.601
 20
47.9005
 30
0.0
 40
0.2
 41
0.2
  0
VERTEX
  8
0
 10
238.601
 20
77.7007
 30
0.0
 40
0.2
 41
0.2
  0
VERTEX
  8
0
 10
238.601
 20
77.7117
 30
0.0
 40
0.2
 41
0.2
  0
VERTEX
  8
0
 10
238.585
 20
77.7434
 30
0.0
 40
0.2
 41
0.2
  0
VERTEX
  8
0
 10
238.562
 20
77.7378
 30
0.0
 40
0.2
 41
0.2
  0
VERTEX
  8
0
 10
238.558
 20
77.7159
 30
0.0
 40
0.2
 41
0.2
  0
VERTEX
  8
0
 10
238.589
 20
77.7007
 30
0.0
 40
0.2
 41
0.2
  0
VERTEX
  8
0
 10
238.601
 20
77.7007
 30
0.0
 40
0.2
 41
0.2
  0
VERTEX
  8
0
 10
241.5
 20
77.7007
 30
0.0
 40
0.2
 41
0.2
  0
VERTEX
  8
0
 10
241.516
 20
77.7007
 30
0.0
 40
0.2
 41
0.2
  0
VERTEX
  8
0
 10
241.57
 20
77.7296
 30
0.0
 40
0.2
 41
0.2
  0
VERTEX
  8
0
 10
241.601
 20
77.7833
 30
0.0
 40
0.2
 41
0.2
  0
VERTEX
  8
0
 10
241.601
 20
77.7998
 30
0.0
 40
0.2
 41
0.2
  0
VERTEX
  8
0
 10
241.601
 20
97.7995
 30
0.0
 40
0.2
 41
0.2
  0
VERTEX
  8
0
 10
241.601
 20
97.8172
 30
0.0
 40
0.2
 41
0.2
  0
VERTEX
  8
0
 10
241.57
 20
97.8711
 30
0.0
 40
0.2
 41
0.2
  0
VERTEX
  8
0
 10
241.516
 20
97.9001
 30
0.0
 40
0.2
 41
0.2
  0
VERTEX
  8
0
 10
241.5
 20
97.9001
 30
0.0
 40
0.2
 41
0.2
  0
VERTEX
  8
0
 10
238.5
 20
97.9001
 30
0.0
 40
0.2
 41
0.2
  0
VERTEX
  8
0
 10
168.5
 20
97.9001
 30
0.0
 40
0.2
 41
0.2
  0
VERTEX
  8
0
 10
165.5
 20
97.9001
 30
0.0
 40
0.2
 41
0.2
  0
VERTEX
  8
0
 10
165.482
 20
97.9001
 30
0.0
 40
0.2
 41
0.2
  0
VERTEX
  8
0
 10
165.429
 20
97.8711
 30
0.0
 40
0.2
 41
0.2
  0
VERTEX
  8
0
 10
165.401
 20
97.8172
 30
0.0
 40
0.2
 41
0.2
  0
VERTEX
  8
0
 10
165.401
 20
97.7995
 30
0.0
 40
0.2
 41
0.2
  0
VERTEX
  8
0
 10
165.401
 20
77.7998
 30
0.0
 40
0.2
 41
0.2
  0
VERTEX
  8
0
 10
165.401
 20
77.7833
 30
0.0
 40
0.2
 41
0.2
  0
VERTEX
  8
0
 10
165.429
 20
77.7296
 30
0.0
 40
0.2
 41
0.2
  0
VERTEX
  8
0
 10
165.482
 20
77.7007
 30
0.0
 40
0.2
 41
0.2
  0
VERTEX
  8
0
 10
165.5
 20
77.7007
 30
0.0
 40
0.2
 41
0.2
  0
VERTEX
  8
0
 10
168.4
 20
77.7007
 30
0.0
 40
0.2
 41
0.2
  0
VERTEX
  8
0
 10
168.41
 20
77.7007
 30
0.0
 40
0.2
 41
0.2
  0
VERTEX
  8
0
 10
168.442
 20
77.7159
 30
0.0
 40
0.2
 41
0.2
  0
VERTEX
  8
0
 10
168.438
 20
77.7378
 30
0.0
 40
0.2
 41
0.2
  0
VERTEX
  8
0
 10
168.414
 20
77.7434
 30
0.0
 40
0.2
 41
0.2
  0
VERTEX
  8
0
 10
168.4
 20
77.7117
 30
0.0
 40
0.2
 41
0.2
  0
VERTEX
  8
0
 10
168.4
 20
77.7007
 30
0.0
 40
0.2
 41
0.2
  0
VERTEX
  8
0
 10
168.4
 20
47.9005
 30
0.0
 40
0.2
 41
0.2
  0
VERTEX
  8
0
 10
168.4
 20
47.891
 30
0.0
 40
0.2
 41
0.2
  0
VERTEX
  8
0
 10
168.414
 20
47.8592
 30
0.0
 40
0.2
 41
0.2
  0
VERTEX
  8
0
 10
168.438
 20
47.8635
 30
0.0
 40
0.2
 41
0.2
  0
VERTEX
  8
0
 10
168.442
 20
47.8868
 30
0.0
 40
0.2
 41
0.2
  0
VERTEX
  8
0
 10
168.41
 20
47.9005
 30
0.0
 40
0.2
 41
0.2
  0
VERTEX
  8
0
 10
168.4
 20
47.9005
 30
0.0
 40
0.2
 41
0.2
  0
VERTEX
  8
0
 10
165.5
 20
47.9005
 30
0.0
 40
0.2
 41
0.2
  0
VERTEX
  8
0
 10
165.482
 20
47.9005
 30
0.0
 40
0.2
 41
0.2
  0
VERTEX
  8
0
 10
165.429
 20
47.8716
 30
0.0
 40
0.2
 41
0.2
  0
VERTEX
  8
0
 10
165.401
 20
47.818
 30
0.0
 40
0.2
 41
0.2
  0
VERTEX
  8
0
 10
165.401
 20
47.8
 30
0.0
 40
0.2
 41
0.2
  0
VERTEX
  8
0
 10
165.401
 20
27.8005
 30
0.0
 40
0.2
 41
0.2
  0
VERTEX
  8
0
 10
165.401
 20
21.8006
 30
0.0
 40
0.2
 41
0.2
  0
VERTEX
  8
0
 10
165.401
 20
21.784
 30
0.0
 40
0.2
 41
0.2
  0
VERTEX
  8
0
 10
165.429
 20
21.7303
 30
0.0
 40
0.2
 41
0.2
  0
VERTEX
  8
0
 10
165.482
 20
21.7
 30
0.0
 40
0.2
 41
0.2
  0
VERTEX
  8
0
 10
165.5
 20
21.7
 30
0.0
 40
0.2
 41
0.2
  0
VERTEX
  8
0
 10
168.5
 20
21.7
 30
0.0
 40
0.2
 41
0.2
  0
SEQEND
 8
0
  0
POLYLINE
  8
0
 62
     5
 66
     1
 10
0
 20
0
 30
0.0
 70
     1
 40
0.566929
 41
0.566929
  0
VERTEX
  8
0
 10
281.2
 20
36.6504
 30
0.0
 40
0.2
 41
0.2
  0
VERTEX
  8
0
 10
257.949
 20
36.6504
 30
0.0
 40
0.2
 41
0.2
  0
VERTEX
  8
0
 10
257.854
 20
36.6504
 30
0.0
 40
0.2
 41
0.2
  0
VERTEX
  8
0
 10
257.569
 20
36.6765
 30
0.0
 40
0.2
 41
0.2
  0
VERTEX
  8
0
 10
257.198
 20
36.7496
 30
0.0
 40
0.2
 41
0.2
  0
VERTEX
  8
0
 10
256.84
 20
36.8709
 30
0.0
 40
0.2
 41
0.2
  0
VERTEX
  8
0
 10
256.581
 20
36.9919
 30
0.0
 40
0.2
 41
0.2
  0
VERTEX
  8
0
 10
256.5
 20
37.0388
 30
0.0
 40
0.2
 41
0.2
  0
VERTEX
  8
0
 10
256.417
 20
37.0872
 30
0.0
 40
0.2
 41
0.2
  0
VERTEX
  8
0
 10
256.183
 20
37.2512
 30
0.0
 40
0.2
 41
0.2
  0
VERTEX
  8
0
 10
255.899
 20
37.5006
 30
0.0
 40
0.2
 41
0.2
  0
VERTEX
  8
0
 10
255.65
 20
37.7843
 30
0.0
 40
0.2
 41
0.2
  0
VERTEX
  8
0
 10
255.486
 20
38.0189
 30
0.0
 40
0.2
 41
0.2
  0
VERTEX
  8
0
 10
255.439
 20
38.1
 30
0.0
 40
0.2
 41
0.2
  0
VERTEX
  8
0
 10
255.39
 20
38.1826
 30
0.0
 40
0.2
 41
0.2
  0
VERTEX
  8
0
 10
255.269
 20
38.4418
 30
0.0
 40
0.2
 41
0.2
  0
VERTEX
  8
0
 10
255.148
 20
38.7999
 30
0.0
 40
0.2
 41
0.2
  0
VERTEX
  8
0
 10
255.075
 20
39.1707
 30
0.0
 40
0.2
 41
0.2
  0
VERTEX
  8
0
 10
255.05
 20
39.4561
 30
0.0
 40
0.2
 41
0.2
  0
VERTEX
  8
0
 10
255.05
 20
39.5496
 30
0.0
 40
0.2
 41
0.2
  0
VERTEX
  8
0
 10
255.05
 20
86.0503
 30
0.0
 40
0.2
 41
0.2
  0
VERTEX
  8
0
 10
255.05
 20
86.1452
 30
0.0
 40
0.2
 41
0.2
  0
VERTEX
  8
0
 10
255.075
 20
86.4306
 30
0.0
 40
0.2
 41
0.2
  0
VERTEX
  8
0
 10
255.148
 20
86.8013
 30
0.0
 40
0.2
 41
0.2
  0
VERTEX
  8
0
 10
255.269
 20
87.1594
 30
0.0
 40
0.2
 41
0.2
  0
VERTEX
  8
0
 10
255.39
 20
87.4187
 30
0.0
 40
0.2
 41
0.2
  0
VERTEX
  8
0
 10
255.439
 20
87.4998
 30
0.0
 40
0.2
 41
0.2
  0
VERTEX
  8
0
 10
255.486
 20
87.5827
 30
0.0
 40
0.2
 41
0.2
  0
VERTEX
  8
0
 10
255.65
 20
87.817
 30
0.0
 40
0.2
 41
0.2
  0
VERTEX
  8
0
 10
255.899
 20
88.1006
 30
0.0
 40
0.2
 41
0.2
  0
VERTEX
  8
0
 10
256.183
 20
88.3514
 30
0.0
 40
0.2
 41
0.2
  0
VERTEX
  8
0
 10
256.417
 20
88.5141
 30
0.0
 40
0.2
 41
0.2
  0
VERTEX
  8
0
 10
256.5
 20
88.561
 30
0.0
 40
0.2
 41
0.2
  0
VERTEX
  8
0
 10
256.581
 20
88.6093
 30
0.0
 40
0.2
 41
0.2
  0
VERTEX
  8
0
 10
256.84
 20
88.7307
 30
0.0
 40
0.2
 41
0.2
  0
VERTEX
  8
0
 10
257.198
 20
88.8517
 30
0.0
 40
0.2
 41
0.2
  0
VERTEX
  8
0
 10
257.569
 20
88.9247
 30
0.0
 40
0.2
 41
0.2
  0
VERTEX
  8
0
 10
257.854
 20
88.9497
 30
0.0
 40
0.2
 41
0.2
  0
VERTEX
  8
0
 10
257.949
 20
88.9497
 30
0.0
 40
0.2
 41
0.2
  0
VERTEX
  8
0
 10
304.45
 20
88.9497
 30
0.0
 40
0.2
 41
0.2
  0
VERTEX
  8
0
 10
304.544
 20
88.9497
 30
0.0
 40
0.2
 41
0.2
  0
VERTEX
  8
0
 10
304.829
 20
88.9247
 30
0.0
 40
0.2
 41
0.2
  0
VERTEX
  8
0
 10
305.2
 20
88.8517
 30
0.0
 40
0.2
 41
0.2
  0
VERTEX
  8
0
 10
305.558
 20
88.7307
 30
0.0
 40
0.2
 41
0.2
  0
VERTEX
  8
0
 10
305.817
 20
88.6093
 30
0.0
 40
0.2
 41
0.2
  0
VERTEX
  8
0
 10
305.9
 20
88.561
 30
0.0
 40
0.2
 41
0.2
  0
VERTEX
  8
0
 10
305.981
 20
88.5141
 30
0.0
 40
0.2
 41
0.2
  0
VERTEX
  8
0
 10
306.215
 20
88.3514
 30
0.0
 40
0.2
 41
0.2
  0
VERTEX
  8
0
 10
306.5
 20
88.1006
 30
0.0
 40
0.2
 41
0.2
  0
VERTEX
  8
0
 10
306.75
 20
87.817
 30
0.0
 40
0.2
 41
0.2
  0
VERTEX
  8
0
 10
306.914
 20
87.5827
 30
0.0
 40
0.2
 41
0.2
  0
VERTEX
  8
0
 10
306.962
 20
87.4998
 30
0.0
 40
0.2
 41
0.2
  0
VERTEX
  8
0
 10
307.009
 20
87.4187
 30
0.0
 40
0.2
 41
0.2
  0
VERTEX
  8
0
 10
307.129
 20
87.1594
 30
0.0
 40
0.2
 41
0.2
  0
VERTEX
  8
0
 10
307.25
 20
86.8013
 30
0.0
 40
0.2
 41
0.2
  0
VERTEX
  8
0
 10
307.323
 20
86.4306
 30
0.0
 40
0.2
 41
0.2
  0
VERTEX
  8
0
 10
307.35
 20
86.1452
 30
0.0
 40
0.2
 41
0.2
  0
VERTEX
  8
0
 10
307.35
 20
86.0503
 30
0.0
 40
0.2
 41
0.2
  0
VERTEX
  8
0
 10
307.35
 20
39.5496
 30
0.0
 40
0.2
 41
0.2
  0
VERTEX
  8
0
 10
307.35
 20
39.4561
 30
0.0
 40
0.2
 41
0.2
  0
VERTEX
  8
0
 10
307.323
 20
39.1707
 30
0.0
 40
0.2
 41
0.2
  0
VERTEX
  8
0
 10
307.25
 20
38.7999
 30
0.0
 40
0.2
 41
0.2
  0
VERTEX
  8
0
 10
307.129
 20
38.4418
 30
0.0
 40
0.2
 41
0.2
  0
VERTEX
  8
0
 10
307.009
 20
38.1826
 30
0.0
 40
0.2
 41
0.2
  0
VERTEX
  8
0
 10
306.962
 20
38.1
 30
0.0
 40
0.2
 41
0.2
  0
VERTEX
  8
0
 10
306.914
 20
38.0189
 30
0.0
 40
0.2
 41
0.2
  0
VERTEX
  8
0
 10
306.75
 20
37.7843
 30
0.0
 40
0.2
 41
0.2
  0
VERTEX
  8
0
 10
306.5
 20
37.5006
 30
0.0
 40
0.2
 41
0.2
  0
VERTEX
  8
0
 10
306.215
 20
37.2512
 30
0.0
 40
0.2
 41
0.2
  0
VERTEX
  8
0
 10
305.981
 20
37.0872
 30
0.0
 40
0.2
 41
0.2
  0
VERTEX
  8
0
 10
305.9
 20
37.0388
 30
0.0
 40
0.2
 41
0.2
  0
VERTEX
  8
0
 10
305.817
 20
36.9919
 30
0.0
 40
0.2
 41
0.2
  0
VERTEX
  8
0
 10
305.558
 20
36.8709
 30
0.0
 40
0.2
 41
0.2
  0
VERTEX
  8
0
 10
305.2
 20
36.7496
 30
0.0
 40
0.2
 41
0.2
  0
VERTEX
  8
0
 10
304.829
 20
36.6765
 30
0.0
 40
0.2
 41
0.2
  0
VERTEX
  8
0
 10
304.544
 20
36.6504
 30
0.0
 40
0.2
 41
0.2
  0
VERTEX
  8
0
 10
304.45
 20
36.6504
 30
0.0
 40
0.2
 41
0.2
  0
VERTEX
  8
0
 10
281.2
 20
36.6504
 30
0.0
 40
0.2
 41
0.2
  0
SEQEND
 8
0
  0
POLYLINE
  8
0
 62
     5
 66
     1
 10
0
 20
0
 30
0.0
 70
     1
 40
0.566929
 41
0.566929
  0
VERTEX
  8
0
 10
281.2
 20
24.8998
 30
0.0
 40
0.2
 41
0.2
  0
VERTEX
  8
0
 10
266.3
 20
24.8998
 30
0.0
 40
0.2
 41
0.2
  0
VERTEX
  8
0
 10
266.289
 20
24.8998
 30
0.0
 40
0.2
 41
0.2
  0
VERTEX
  8
0
 10
266.258
 20
24.886
 30
0.0
 40
0.2
 41
0.2
  0
VERTEX
  8
0
 10
266.262
 20
24.8626
 30
0.0
 40
0.2
 41
0.2
  0
VERTEX
  8
0
 10
266.285
 20
24.8584
 30
0.0
 40
0.2
 41
0.2
  0
VERTEX
  8
0
 10
266.3
 20
24.8901
 30
0.0
 40
0.2
 41
0.2
  0
VERTEX
  8
0
 10
266.3
 20
24.8998
 30
0.0
 40
0.2
 41
0.2
  0
VERTEX
  8
0
 10
266.3
 20
27.6999
 30
0.0
 40
0.2
 41
0.2
  0
VERTEX
  8
0
 10
266.3
 20
27.711
 30
0.0
 40
0.2
 41
0.2
  0
VERTEX
  8
0
 10
266.285
 20
27.7427
 30
0.0
 40
0.2
 41
0.2
  0
VERTEX
  8
0
 10
266.262
 20
27.7385
 30
0.0
 40
0.2
 41
0.2
  0
VERTEX
  8
0
 10
266.258
 20
27.7151
 30
0.0
 40
0.2
 41
0.2
  0
VERTEX
  8
0
 10
266.289
 20
27.6999
 30
0.0
 40
0.2
 41
0.2
  0
VERTEX
  8
0
 10
266.3
 20
27.6999
 30
0.0
 40
0.2
 41
0.2
  0
VERTEX
  8
0
 10
296.101
 20
27.6999
 30
0.0
 40
0.2
 41
0.2
  0
VERTEX
  8
0
 10
296.11
 20
27.6999
 30
0.0
 40
0.2
 41
0.2
  0
VERTEX
  8
0
 10
296.142
 20
27.7151
 30
0.0
 40
0.2
 41
0.2
  0
VERTEX
  8
0
 10
296.138
 20
27.7385
 30
0.0
 40
0.2
 41
0.2
  0
VERTEX
  8
0
 10
296.114
 20
27.7427
 30
0.0
 40
0.2
 41
0.2
  0
VERTEX
  8
0
 10
296.101
 20
27.711
 30
0.0
 40
0.2
 41
0.2
  0
VERTEX
  8
0
 10
296.101
 20
27.6999
 30
0.0
 40
0.2
 41
0.2
  0
VERTEX
  8
0
 10
296.101
 20
24.8998
 30
0.0
 40
0.2
 41
0.2
  0
VERTEX
  8
0
 10
296.101
 20
24.8901
 30
0.0
 40
0.2
 41
0.2
  0
VERTEX
  8
0
 10
296.114
 20
24.8584
 30
0.0
 40
0.2
 41
0.2
  0
VERTEX
  8
0
 10
296.138
 20
24.8626
 30
0.0
 40
0.2
 41
0.2
  0
VERTEX
  8
0
 10
296.142
 20
24.886
 30
0.0
 40
0.2
 41
0.2
  0
VERTEX
  8
0
 10
296.11
 20
24.8998
 30
0.0
 40
0.2
 41
0.2
  0
VERTEX
  8
0
 10
296.101
 20
24.8998
 30
0.0
 40
0.2
 41
0.2
  0
VERTEX
  8
0
 10
281.2
 20
24.8998
 30
0.0
 40
0.2
 41
0.2
  0
SEQEND
 8
0
  0
POLYLINE
  8
0
 62
     0
 66
     1
 10
0
 20
0
 30
0.0
 70
     1
 40
0.566929
 41
0.566929
  0
VERTEX
  8
0
 10
246.2
 20
21.7
 30
0.0
 40
0.2
 41
0.2
  0
VERTEX
  8
0
 10
316.2
 20
21.7
 30
0.0
 40
0.2
 41
0.2
  0
VERTEX
  8
0
 10
319.2
 20
21.7
 30
0.0
 40
0.2
 41
0.2
  0
VERTEX
  8
0
 10
319.217
 20
21.7
 30
0.0
 40
0.2
 41
0.2
  0
VERTEX
  8
0
 10
319.271
 20
21.7303
 30
0.0
 40
0.2
 41
0.2
  0
VERTEX
  8
0
 10
319.3
 20
21.784
 30
0.0
 40
0.2
 41
0.2
  0
VERTEX
  8
0
 10
319.3
 20
21.8006
 30
0.0
 40
0.2
 41
0.2
  0
VERTEX
  8
0
 10
319.3
 20
27.8005
 30
0.0
 40
0.2
 41
0.2
  0
VERTEX
  8
0
 10
319.3
 20
47.8
 30
0.0
 40
0.2
 41
0.2
  0
VERTEX
  8
0
 10
319.3
 20
47.818
 30
0.0
 40
0.2
 41
0.2
  0
VERTEX
  8
0
 10
319.271
 20
47.8716
 30
0.0
 40
0.2
 41
0.2
  0
VERTEX
  8
0
 10
319.217
 20
47.9005
 30
0.0
 40
0.2
 41
0.2
  0
VERTEX
  8
0
 10
319.2
 20
47.9005
 30
0.0
 40
0.2
 41
0.2
  0
VERTEX
  8
0
 10
316.3
 20
47.9005
 30
0.0
 40
0.2
 41
0.2
  0
VERTEX
  8
0
 10
316.289
 20
47.9005
 30
0.0
 40
0.2
 41
0.2
  0
VERTEX
  8
0
 10
316.257
 20
47.8868
 30
0.0
 40
0.2
 41
0.2
  0
VERTEX
  8
0
 10
316.262
 20
47.8635
 30
0.0
 40
0.2
 41
0.2
  0
VERTEX
  8
0
 10
316.285
 20
47.8592
 30
0.0
 40
0.2
 41
0.2
  0
VERTEX
  8
0
 10
316.3
 20
47.891
 30
0.0
 40
0.2
 41
0.2
  0
VERTEX
  8
0
 10
316.3
 20
47.9005
 30
0.0
 40
0.2
 41
0.2
  0
VERTEX
  8
0
 10
316.3
 20
77.7007
 30
0.0
 40
0.2
 41
0.2
  0
VERTEX
  8
0
 10
316.3
 20
77.7117
 30
0.0
 40
0.2
 41
0.2
  0
VERTEX
  8
0
 10
316.285
 20
77.7434
 30
0.0
 40
0.2
 41
0.2
  0
VERTEX
  8
0
 10
316.262
 20
77.7378
 30
0.0
 40
0.2
 41
0.2
  0
VERTEX
  8
0
 10
316.257
 20
77.7159
 30
0.0
 40
0.2
 41
0.2
  0
VERTEX
  8
0
 10
316.289
 20
77.7007
 30
0.0
 40
0.2
 41
0.2
  0
VERTEX
  8
0
 10
316.3
 20
77.7007
 30
0.0
 40
0.2
 41
0.2
  0
VERTEX
  8
0
 10
319.2
 20
77.7007
 30
0.0
 40
0.2
 41
0.2
  0
VERTEX
  8
0
 10
319.217
 20
77.7007
 30
0.0
 40
0.2
 41
0.2
  0
VERTEX
  8
0
 10
319.271
 20
77.7296
 30
0.0
 40
0.2
 41
0.2
  0
VERTEX
  8
0
 10
319.3
 20
77.7833
 30
0.0
 40
0.2
 41
0.2
  0
VERTEX
  8
0
 10
319.3
 20
77.7998
 30
0.0
 40
0.2
 41
0.2
  0
VERTEX
  8
0
 10
319.3
 20
97.7995
 30
0.0
 40
0.2
 41
0.2
  0
VERTEX
  8
0
 10
319.3
 20
97.8172
 30
0.0
 40
0.2
 41
0.2
  0
VERTEX
  8
0
 10
319.271
 20
97.8711
 30
0.0
 40
0.2
 41
0.2
  0
VERTEX
  8
0
 10
319.217
 20
97.9001
 30
0.0
 40
0.2
 41
0.2
  0
VERTEX
  8
0
 10
319.2
 20
97.9001
 30
0.0
 40
0.2
 41
0.2
  0
VERTEX
  8
0
 10
316.2
 20
97.9001
 30
0.0
 40
0.2
 41
0.2
  0
VERTEX
  8
0
 10
246.2
 20
97.9001
 30
0.0
 40
0.2
 41
0.2
  0
VERTEX
  8
0
 10
243.2
 20
97.9001
 30
0.0
 40
0.2
 41
0.2
  0
VERTEX
  8
0
 10
243.182
 20
97.9001
 30
0.0
 40
0.2
 41
0.2
  0
VERTEX
  8
0
 10
243.129
 20
97.8711
 30
0.0
 40
0.2
 41
0.2
  0
VERTEX
  8
0
 10
243.1
 20
97.8172
 30
0.0
 40
0.2
 41
0.2
  0
VERTEX
  8
0
 10
243.1
 20
97.7995
 30
0.0
 40
0.2
 41
0.2
  0
VERTEX
  8
0
 10
243.1
 20
77.7998
 30
0.0
 40
0.2
 41
0.2
  0
VERTEX
  8
0
 10
243.1
 20
77.7833
 30
0.0
 40
0.2
 41
0.2
  0
VERTEX
  8
0
 10
243.129
 20
77.7296
 30
0.0
 40
0.2
 41
0.2
  0
VERTEX
  8
0
 10
243.182
 20
77.7007
 30
0.0
 40
0.2
 41
0.2
  0
VERTEX
  8
0
 10
243.2
 20
77.7007
 30
0.0
 40
0.2
 41
0.2
  0
VERTEX
  8
0
 10
246.1
 20
77.7007
 30
0.0
 40
0.2
 41
0.2
  0
VERTEX
  8
0
 10
246.109
 20
77.7007
 30
0.0
 40
0.2
 41
0.2
  0
VERTEX
  8
0
 10
246.141
 20
77.7159
 30
0.0
 40
0.2
 41
0.2
  0
VERTEX
  8
0
 10
246.137
 20
77.7378
 30
0.0
 40
0.2
 41
0.2
  0
VERTEX
  8
0
 10
246.114
 20
77.7434
 30
0.0
 40
0.2
 41
0.2
  0
VERTEX
  8
0
 10
246.1
 20
77.7117
 30
0.0
 40
0.2
 41
0.2
  0
VERTEX
  8
0
 10
246.1
 20
77.7007
 30
0.0
 40
0.2
 41
0.2
  0
VERTEX
  8
0
 10
246.1
 20
47.9005
 30
0.0
 40
0.2
 41
0.2
  0
VERTEX
  8
0
 10
246.1
 20
47.891
 30
0.0
 40
0.2
 41
0.2
  0
VERTEX
  8
0
 10
246.114
 20
47.8592
 30
0.0
 40
0.2
 41
0.2
  0
VERTEX
  8
0
 10
246.137
 20
47.8635
 30
0.0
 40
0.2
 41
0.2
  0
VERTEX
  8
0
 10
246.141
 20
47.8868
 30
0.0
 40
0.2
 41
0.2
  0
VERTEX
  8
0
 10
246.109
 20
47.9005
 30
0.0
 40
0.2
 41
0.2
  0
VERTEX
  8
0
 10
246.1
 20
47.9005
 30
0.0
 40
0.2
 41
0.2
  0
VERTEX
  8
0
 10
243.2
 20
47.9005
 30
0.0
 40
0.2
 41
0.2
  0
VERTEX
  8
0
 10
243.182
 20
47.9005
 30
0.0
 40
0.2
 41
0.2
  0
VERTEX
  8
0
 10
243.129
 20
47.8716
 30
0.0
 40
0.2
 41
0.2
  0
VERTEX
  8
0
 10
243.1
 20
47.818
 30
0.0
 40
0.2
 41
0.2
  0
VERTEX
  8
0
 10
243.1
 20
47.8
 30
0.0
 40
0.2
 41
0.2
  0
VERTEX
  8
0
 10
243.1
 20
27.8005
 30
0.0
 40
0.2
 41
0.2
  0
VERTEX
  8
0
 10
243.1
 20
21.8006
 30
0.0
 40
0.2
 41
0.2
  0
VERTEX
  8
0
 10
243.1
 20
21.784
 30
0.0
 40
0.2
 41
0.2
  0
VERTEX
  8
0
 10
243.129
 20
21.7303
 30
0.0
 40
0.2
 41
0.2
  0
VERTEX
  8
0
 10
243.182
 20
21.7
 30
0.0
 40
0.2
 41
0.2
  0
VERTEX
  8
0
 10
243.2
 20
21.7
 30
0.0
 40
0.2
 41
0.2
  0
VERTEX
  8
0
 10
246.2
 20
21.7
 30
0.0
 40
0.2
 41
0.2
  0
SEQEND
 8
0
  0
POLYLINE
  8
0
 62
     0
 66
     1
 10
0
 20
0
 30
0.0
 70
     1
 40
0.566929
 41
0.566929
  0
VERTEX
  8
0
 10
323.9
 20
24.6999
 30
0.0
 40
0.2
 41
0.2
  0
VERTEX
  8
0
 10
343.8
 20
24.6999
 30
0.0
 40
0.2
 41
0.2
  0
VERTEX
  8
0
 10
343.809
 20
24.6999
 30
0.0
 40
0.2
 41
0.2
  0
VERTEX
  8
0
 10
343.841
 20
24.7151
 30
0.0
 40
0.2
 41
0.2
  0
VERTEX
  8
0
 10
343.837
 20
24.7385
 30
0.0
 40
0.2
 41
0.2
  0
VERTEX
  8
0
 10
343.814
 20
24.7427
 30
0.0
 40
0.2
 41
0.2
  0
VERTEX
  8
0
 10
343.8
 20
24.711
 30
0.0
 40
0.2
 41
0.2
  0
VERTEX
  8
0
 10
343.8
 20
24.6999
 30
0.0
 40
0.2
 41
0.2
  0
VERTEX
  8
0
 10
343.8
 20
21.8006
 30
0.0
 40
0.2
 41
0.2
  0
VERTEX
  8
0
 10
343.8
 20
21.784
 30
0.0
 40
0.2
 41
0.2
  0
VERTEX
  8
0
 10
343.829
 20
21.7303
 30
0.0
 40
0.2
 41
0.2
  0
VERTEX
  8
0
 10
343.882
 20
21.7
 30
0.0
 40
0.2
 41
0.2
  0
VERTEX
  8
0
 10
343.9
 20
21.7
 30
0.0
 40
0.2
 41
0.2
  0
VERTEX
  8
0
 10
373.902
 20
21.7
 30
0.0
 40
0.2
 41
0.2
  0
VERTEX
  8
0
 10
373.916
 20
21.7
 30
0.0
 40
0.2
 41
0.2
  0
VERTEX
  8
0
 10
373.969
 20
21.7303
 30
0.0
 40
0.2
 41
0.2
  0
VERTEX
  8
0
 10
374.001
 20
21.784
 30
0.0
 40
0.2
 41
0.2
  0
VERTEX
  8
0
 10
374.001
 20
21.8006
 30
0.0
 40
0.2
 41
0.2
  0
VERTEX
  8
0
 10
374.001
 20
24.6999
 30
0.0
 40
0.2
 41
0.2
  0
VERTEX
  8
0
 10
374.001
 20
24.711
 30
0.0
 40
0.2
 41
0.2
  0
VERTEX
  8
0
 10
373.983
 20
24.7427
 30
0.0
 40
0.2
 41
0.2
  0
VERTEX
  8
0
 10
373.962
 20
24.7385
 30
0.0
 40
0.2
 41
0.2
  0
VERTEX
  8
0
 10
373.959
 20
24.7151
 30
0.0
 40
0.2
 41
0.2
  0
VERTEX
  8
0
 10
373.99
 20
24.6999
 30
0.0
 40
0.2
 41
0.2
  0
VERTEX
  8
0
 10
374.001
 20
24.6999
 30
0.0
 40
0.2
 41
0.2
  0
VERTEX
  8
0
 10
393.901
 20
24.6999
 30
0.0
 40
0.2
 41
0.2
  0
VERTEX
  8
0
 10
393.915
 20
24.6999
 30
0.0
 40
0.2
 41
0.2
  0
VERTEX
  8
0
 10
393.972
 20
24.7303
 30
0.0
 40
0.2
 41
0.2
  0
VERTEX
  8
0
 10
394
 20
24.784
 30
0.0
 40
0.2
 41
0.2
  0
VERTEX
  8
0
 10
394
 20
24.8006
 30
0.0
 40
0.2
 41
0.2
  0
VERTEX
  8
0
 10
394
 20
44.6994
 30
0.0
 40
0.2
 41
0.2
  0
VERTEX
  8
0
 10
394
 20
44.7103
 30
0.0
 40
0.2
 41
0.2
  0
VERTEX
  8
0
 10
393.986
 20
44.7421
 30
0.0
 40
0.2
 41
0.2
  0
VERTEX
  8
0
 10
393.961
 20
44.7379
 30
0.0
 40
0.2
 41
0.2
  0
VERTEX
  8
0
 10
393.958
 20
44.7146
 30
0.0
 40
0.2
 41
0.2
  0
VERTEX
  8
0
 10
393.989
 20
44.6994
 30
0.0
 40
0.2
 41
0.2
  0
VERTEX
  8
0
 10
394
 20
44.6994
 30
0.0
 40
0.2
 41
0.2
  0
VERTEX
  8
0
 10
396.9
 20
44.6994
 30
0.0
 40
0.2
 41
0.2
  0
VERTEX
  8
0
 10
396.917
 20
44.6994
 30
0.0
 40
0.2
 41
0.2
  0
VERTEX
  8
0
 10
396.97
 20
44.7298
 30
0.0
 40
0.2
 41
0.2
  0
VERTEX
  8
0
 10
397.002
 20
44.7834
 30
0.0
 40
0.2
 41
0.2
  0
VERTEX
  8
0
 10
397.002
 20
44.8
 30
0.0
 40
0.2
 41
0.2
  0
VERTEX
  8
0
 10
397.002
 20
74.7998
 30
0.0
 40
0.2
 41
0.2
  0
VERTEX
  8
0
 10
397.002
 20
74.8178
 30
0.0
 40
0.2
 41
0.2
  0
VERTEX
  8
0
 10
396.97
 20
74.8714
 30
0.0
 40
0.2
 41
0.2
  0
VERTEX
  8
0
 10
396.917
 20
74.9004
 30
0.0
 40
0.2
 41
0.2
  0
VERTEX
  8
0
 10
396.9
 20
74.9004
 30
0.0
 40
0.2
 41
0.2
  0
VERTEX
  8
0
 10
394
 20
74.9004
 30
0.0
 40
0.2
 41
0.2
  0
VERTEX
  8
0
 10
393.989
 20
74.9004
 30
0.0
 40
0.2
 41
0.2
  0
VERTEX
  8
0
 10
393.958
 20
74.8866
 30
0.0
 40
0.2
 41
0.2
  0
VERTEX
  8
0
 10
393.961
 20
74.8633
 30
0.0
 40
0.2
 41
0.2
  0
VERTEX
  8
0
 10
393.986
 20
74.8591
 30
0.0
 40
0.2
 41
0.2
  0
VERTEX
  8
0
 10
394
 20
74.8908
 30
0.0
 40
0.2
 41
0.2
  0
VERTEX
  8
0
 10
394
 20
74.9004
 30
0.0
 40
0.2
 41
0.2
  0
VERTEX
  8
0
 10
394
 20
94.7995
 30
0.0
 40
0.2
 41
0.2
  0
VERTEX
  8
0
 10
394
 20
94.8171
 30
0.0
 40
0.2
 41
0.2
  0
VERTEX
  8
0
 10
393.972
 20
94.8711
 30
0.0
 40
0.2
 41
0.2
  0
VERTEX
  8
0
 10
393.915
 20
94.9
 30
0.0
 40
0.2
 41
0.2
  0
VERTEX
  8
0
 10
393.901
 20
94.9
 30
0.0
 40
0.2
 41
0.2
  0
VERTEX
  8
0
 10
374.001
 20
94.9
 30
0.0
 40
0.2
 41
0.2
  0
VERTEX
  8
0
 10
373.99
 20
94.9
 30
0.0
 40
0.2
 41
0.2
  0
VERTEX
  8
0
 10
373.959
 20
94.8863
 30
0.0
 40
0.2
 41
0.2
  0
VERTEX
  8
0
 10
373.962
 20
94.8627
 30
0.0
 40
0.2
 41
0.2
  0
VERTEX
  8
0
 10
373.983
 20
94.8588
 30
0.0
 40
0.2
 41
0.2
  0
VERTEX
  8
0
 10
374.001
 20
94.8902
 30
0.0
 40
0.2
 41
0.2
  0
VERTEX
  8
0
 10
374.001
 20
94.9
 30
0.0
 40
0.2
 41
0.2
  0
VERTEX
  8
0
 10
374.001
 20
97.7995
 30
0.0
 40
0.2
 41
0.2
  0
VERTEX
  8
0
 10
374.001
 20
97.8172
 30
0.0
 40
0.2
 41
0.2
  0
VERTEX
  8
0
 10
373.969
 20
97.8711
 30
0.0
 40
0.2
 41
0.2
  0
VERTEX
  8
0
 10
373.916
 20
97.9001
 30
0.0
 40
0.2
 41
0.2
  0
VERTEX
  8
0
 10
373.902
 20
97.9001
 30
0.0
 40
0.2
 41
0.2
  0
VERTEX
  8
0
 10
343.9
 20
97.9001
 30
0.0
 40
0.2
 41
0.2
  0
VERTEX
  8
0
 10
343.882
 20
97.9001
 30
0.0
 40
0.2
 41
0.2
  0
VERTEX
  8
0
 10
343.829
 20
97.8711
 30
0.0
 40
0.2
 41
0.2
  0
VERTEX
  8
0
 10
343.8
 20
97.8172
 30
0.0
 40
0.2
 41
0.2
  0
VERTEX
  8
0
 10
343.8
 20
97.7995
 30
0.0
 40
0.2
 41
0.2
  0
VERTEX
  8
0
 10
343.8
 20
94.9
 30
0.0
 40
0.2
 41
0.2
  0
VERTEX
  8
0
 10
343.8
 20
94.8902
 30
0.0
 40
0.2
 41
0.2
  0
VERTEX
  8
0
 10
343.814
 20
94.8588
 30
0.0
 40
0.2
 41
0.2
  0
VERTEX
  8
0
 10
343.837
 20
94.8627
 30
0.0
 40
0.2
 41
0.2
  0
VERTEX
  8
0
 10
343.841
 20
94.8863
 30
0.0
 40
0.2
 41
0.2
  0
VERTEX
  8
0
 10
343.809
 20
94.9
 30
0.0
 40
0.2
 41
0.2
  0
VERTEX
  8
0
 10
343.8
 20
94.9
 30
0.0
 40
0.2
 41
0.2
  0
VERTEX
  8
0
 10
323.9
 20
94.9
 30
0.0
 40
0.2
 41
0.2
  0
VERTEX
  8
0
 10
323.882
 20
94.9
 30
0.0
 40
0.2
 41
0.2
  0
VERTEX
  8
0
 10
323.829
 20
94.8711
 30
0.0
 40
0.2
 41
0.2
  0
VERTEX
  8
0
 10
323.8
 20
94.8171
 30
0.0
 40
0.2
 41
0.2
  0
VERTEX
  8
0
 10
323.8
 20
94.7995
 30
0.0
 40
0.2
 41
0.2
  0
VERTEX
  8
0
 10
323.8
 20
74.9004
 30
0.0
 40
0.2
 41
0.2
  0
VERTEX
  8
0
 10
323.8
 20
74.8908
 30
0.0
 40
0.2
 41
0.2
  0
VERTEX
  8
0
 10
323.814
 20
74.8591
 30
0.0
 40
0.2
 41
0.2
  0
VERTEX
  8
0
 10
323.838
 20
74.8633
 30
0.0
 40
0.2
 41
0.2
  0
VERTEX
  8
0
 10
323.842
 20
74.8866
 30
0.0
 40
0.2
 41
0.2
  0
VERTEX
  8
0
 10
323.81
 20
74.9004
 30
0.0
 40
0.2
 41
0.2
  0
VERTEX
  8
0
 10
323.8
 20
74.9004
 30
0.0
 40
0.2
 41
0.2
  0
VERTEX
  8
0
 10
320.9
 20
74.9004
 30
0.0
 40
0.2
 41
0.2
  0
VERTEX
  8
0
 10
320.882
 20
74.9004
 30
0.0
 40
0.2
 41
0.2
  0
VERTEX
  8
0
 10
320.83
 20
74.8714
 30
0.0
 40
0.2
 41
0.2
  0
VERTEX
  8
0
 10
320.8
 20
74.8178
 30
0.0
 40
0.2
 41
0.2
  0
VERTEX
  8
0
 10
320.8
 20
74.7998
 30
0.0
 40
0.2
 41
0.2
  0
VERTEX
  8
0
 10
320.8
 20
44.8
 30
0.0
 40
0.2
 41
0.2
  0
VERTEX
  8
0
 10
320.8
 20
44.7834
 30
0.0
 40
0.2
 41
0.2
  0
VERTEX
  8
0
 10
320.83
 20
44.7298
 30
0.0
 40
0.2
 41
0.2
  0
VERTEX
  8
0
 10
320.882
 20
44.6994
 30
0.0
 40
0.2
 41
0.2
  0
VERTEX
  8
0
 10
320.9
 20
44.6994
 30
0.0
 40
0.2
 41
0.2
  0
VERTEX
  8
0
 10
323.8
 20
44.6994
 30
0.0
 40
0.2
 41
0.2
  0
VERTEX
  8
0
 10
323.81
 20
44.6994
 30
0.0
 40
0.2
 41
0.2
  0
VERTEX
  8
0
 10
323.842
 20
44.7146
 30
0.0
 40
0.2
 41
0.2
  0
VERTEX
  8
0
 10
323.838
 20
44.7379
 30
0.0
 40
0.2
 41
0.2
  0
VERTEX
  8
0
 10
323.814
 20
44.7421
 30
0.0
 40
0.2
 41
0.2
  0
VERTEX
  8
0
 10
323.8
 20
44.7103
 30
0.0
 40
0.2
 41
0.2
  0
VERTEX
  8
0
 10
323.8
 20
44.6994
 30
0.0
 40
0.2
 41
0.2
  0
VERTEX
  8
0
 10
323.8
 20
24.8006
 30
0.0
 40
0.2
 41
0.2
  0
VERTEX
  8
0
 10
323.8
 20
24.784
 30
0.0
 40
0.2
 41
0.2
  0
VERTEX
  8
0
 10
323.829
 20
24.7303
 30
0.0
 40
0.2
 41
0.2
  0
VERTEX
  8
0
 10
323.882
 20
24.6999
 30
0.0
 40
0.2
 41
0.2
  0
VERTEX
  8
0
 10
323.9
 20
24.6999
 30
0.0
 40
0.2
 41
0.2
  0
SEQEND
 8
0
  0
POLYLINE
  8
0
 62
     0
 66
     1
 10
0
 20
0
 30
0.0
 70
     1
 40
0.566929
 41
0.566929
  0
VERTEX
  8
0
 10
418.398
 20
21.7
 30
0.0
 40
0.2
 41
0.2
  0
VERTEX
  8
0
 10
494.4
 20
21.7
 30
0.0
 40
0.2
 41
0.2
  0
VERTEX
  8
0
 10
495.05
 20
21.7
 30
0.0
 40
0.2
 41
0.2
  0
VERTEX
  8
0
 10
497
 20
21.8722
 30
0.0
 40
0.2
 41
0.2
  0
VERTEX
  8
0
 10
499.547
 20
22.378
 30
0.0
 40
0.2
 41
0.2
  0
VERTEX
  8
0
 10
502.01
 20
23.2131
 30
0.0
 40
0.2
 41
0.2
  0
VERTEX
  8
0
 10
503.784
 20
24.0412
 30
0.0
 40
0.2
 41
0.2
  0
VERTEX
  8
0
 10
504.349
 20
24.3665
 30
0.0
 40
0.2
 41
0.2
  0
VERTEX
  8
0
 10
504.631
 20
24.5305
 30
0.0
 40
0.2
 41
0.2
  0
VERTEX
  8
0
 10
505.456
 20
25.0569
 30
0.0
 40
0.2
 41
0.2
  0
VERTEX
  8
0
 10
506.515
 20
25.8162
 30
0.0
 40
0.2
 41
0.2
  0
VERTEX
  8
0
 10
507.52
 20
26.6416
 30
0.0
 40
0.2
 41
0.2
  0
VERTEX
  8
0
 10
508.469
 20
27.5291
 30
0.0
 40
0.2
 41
0.2
  0
VERTEX
  8
0
 10
509.358
 20
28.4772
 30
0.0
 40
0.2
 41
0.2
  0
VERTEX
  8
0
 10
510.18
 20
29.4817
 30
0.0
 40
0.2
 41
0.2
  0
VERTEX
  8
0
 10
510.942
 20
30.5401
 30
0.0
 40
0.2
 41
0.2
  0
VERTEX
  8
0
 10
511.468
 20
31.3669
 30
0.0
 40
0.2
 41
0.2
  0
VERTEX
  8
0
 10
511.634
 20
31.6494
 30
0.0
 40
0.2
 41
0.2
  0
VERTEX
  8
0
 10
511.958
 20
32.213
 30
0.0
 40
0.2
 41
0.2
  0
VERTEX
  8
0
 10
512.784
 20
33.9893
 30
0.0
 40
0.2
 41
0.2
  0
VERTEX
  8
0
 10
513.62
 20
36.449
 30
0.0
 40
0.2
 41
0.2
  0
VERTEX
  8
0
 10
514.124
 20
38.9971
 30
0.0
 40
0.2
 41
0.2
  0
VERTEX
  8
0
 10
514.297
 20
40.9483
 30
0.0
 40
0.2
 41
0.2
  0
VERTEX
  8
0
 10
514.297
 20
41.5988
 30
0.0
 40
0.2
 41
0.2
  0
VERTEX
  8
0
 10
514.297
 20
97.0964
 30
0.0
 40
0.2
 41
0.2
  0
VERTEX
  8
0
 10
514.297
 20
97.1144
 30
0.0
 40
0.2
 41
0.2
  0
VERTEX
  8
0
 10
514.269
 20
97.1684
 30
0.0
 40
0.2
 41
0.2
  0
VERTEX
  8
0
 10
514.216
 20
97.1973
 30
0.0
 40
0.2
 41
0.2
  0
VERTEX
  8
0
 10
514.198
 20
97.1973
 30
0.0
 40
0.2
 41
0.2
  0
VERTEX
  8
0
 10
471.498
 20
97.1973
 30
0.0
 40
0.2
 41
0.2
  0
VERTEX
  8
0
 10
471.488
 20
97.1973
 30
0.0
 40
0.2
 41
0.2
  0
VERTEX
  8
0
 10
471.456
 20
97.1832
 30
0.0
 40
0.2
 41
0.2
  0
VERTEX
  8
0
 10
471.463
 20
97.1599
 30
0.0
 40
0.2
 41
0.2
  0
VERTEX
  8
0
 10
471.484
 20
97.1557
 30
0.0
 40
0.2
 41
0.2
  0
VERTEX
  8
0
 10
471.498
 20
97.1875
 30
0.0
 40
0.2
 41
0.2
  0
VERTEX
  8
0
 10
471.498
 20
97.1973
 30
0.0
 40
0.2
 41
0.2
  0
VERTEX
  8
0
 10
471.498
 20
100.096
 30
0.0
 40
0.2
 41
0.2
  0
VERTEX
  8
0
 10
471.498
 20
100.114
 30
0.0
 40
0.2
 41
0.2
  0
VERTEX
  8
0
 10
471.47
 20
100.167
 30
0.0
 40
0.2
 41
0.2
  0
VERTEX
  8
0
 10
471.417
 20
100.196
 30
0.0
 40
0.2
 41
0.2
  0
VERTEX
  8
0
 10
471.399
 20
100.196
 30
0.0
 40
0.2
 41
0.2
  0
VERTEX
  8
0
 10
441.399
 20
100.196
 30
0.0
 40
0.2
 41
0.2
  0
VERTEX
  8
0
 10
441.381
 20
100.196
 30
0.0
 40
0.2
 41
0.2
  0
VERTEX
  8
0
 10
441.329
 20
100.167
 30
0.0
 40
0.2
 41
0.2
  0
VERTEX
  8
0
 10
441.3
 20
100.114
 30
0.0
 40
0.2
 41
0.2
  0
VERTEX
  8
0
 10
441.3
 20
100.096
 30
0.0
 40
0.2
 41
0.2
  0
VERTEX
  8
0
 10
441.3
 20
97.1973
 30
0.0
 40
0.2
 41
0.2
  0
VERTEX
  8
0
 10
441.3
 20
97.1875
 30
0.0
 40
0.2
 41
0.2
  0
VERTEX
  8
0
 10
441.311
 20
97.1557
 30
0.0
 40
0.2
 41
0.2
  0
VERTEX
  8
0
 10
441.336
 20
97.1599
 30
0.0
 40
0.2
 41
0.2
  0
VERTEX
  8
0
 10
441.339
 20
97.1832
 30
0.0
 40
0.2
 41
0.2
  0
VERTEX
  8
0
 10
441.307
 20
97.1973
 30
0.0
 40
0.2
 41
0.2
  0
VERTEX
  8
0
 10
441.3
 20
97.1973
 30
0.0
 40
0.2
 41
0.2
  0
VERTEX
  8
0
 10
398.6
 20
97.1973
 30
0.0
 40
0.2
 41
0.2
  0
VERTEX
  8
0
 10
398.582
 20
97.1973
 30
0.0
 40
0.2
 41
0.2
  0
VERTEX
  8
0
 10
398.53
 20
97.1684
 30
0.0
 40
0.2
 41
0.2
  0
VERTEX
  8
0
 10
398.501
 20
97.1144
 30
0.0
 40
0.2
 41
0.2
  0
VERTEX
  8
0
 10
398.501
 20
97.0964
 30
0.0
 40
0.2
 41
0.2
  0
VERTEX
  8
0
 10
398.501
 20
41.5988
 30
0.0
 40
0.2
 41
0.2
  0
VERTEX
  8
0
 10
398.501
 20
40.9483
 30
0.0
 40
0.2
 41
0.2
  0
VERTEX
  8
0
 10
398.671
 20
38.9971
 30
0.0
 40
0.2
 41
0.2
  0
VERTEX
  8
0
 10
399.179
 20
36.449
 30
0.0
 40
0.2
 41
0.2
  0
VERTEX
  8
0
 10
400.011
 20
33.9893
 30
0.0
 40
0.2
 41
0.2
  0
VERTEX
  8
0
 10
400.84
 20
32.213
 30
0.0
 40
0.2
 41
0.2
  0
VERTEX
  8
0
 10
401.165
 20
31.6494
 30
0.0
 40
0.2
 41
0.2
  0
VERTEX
  8
0
 10
401.331
 20
31.3669
 30
0.0
 40
0.2
 41
0.2
  0
VERTEX
  8
0
 10
401.856
 20
30.5401
 30
0.0
 40
0.2
 41
0.2
  0
VERTEX
  8
0
 10
402.615
 20
29.4817
 30
0.0
 40
0.2
 41
0.2
  0
VERTEX
  8
0
 10
403.44
 20
28.4772
 30
0.0
 40
0.2
 41
0.2
  0
VERTEX
  8
0
 10
404.329
 20
27.5291
 30
0.0
 40
0.2
 41
0.2
  0
VERTEX
  8
0
 10
405.275
 20
26.6416
 30
0.0
 40
0.2
 41
0.2
  0
VERTEX
  8
0
 10
406.28
 20
25.8162
 30
0.0
 40
0.2
 41
0.2
  0
VERTEX
  8
0
 10
407.338
 20
25.0569
 30
0.0
 40
0.2
 41
0.2
  0
VERTEX
  8
0
 10
408.164
 20
24.5305
 30
0.0
 40
0.2
 41
0.2
  0
VERTEX
  8
0
 10
408.45
 20
24.3665
 30
0.0
 40
0.2
 41
0.2
  0
VERTEX
  8
0
 10
409.011
 20
24.0412
 30
0.0
 40
0.2
 41
0.2
  0
VERTEX
  8
0
 10
410.789
 20
23.2131
 30
0.0
 40
0.2
 41
0.2
  0
VERTEX
  8
0
 10
413.247
 20
22.378
 30
0.0
 40
0.2
 41
0.2
  0
VERTEX
  8
0
 10
415.794
 20
21.8722
 30
0.0
 40
0.2
 41
0.2
  0
VERTEX
  8
0
 10
417.745
 20
21.7
 30
0.0
 40
0.2
 41
0.2
  0
VERTEX
  8
0
 10
418.398
 20
21.7
 30
0.0
 40
0.2
 41
0.2
  0
SEQEND
 8
0
  0
POLYLINE
  8
0
 62
     5
 66
     1
 10
0
 20
0
 30
0.0
 70
     1
 40
0.566929
 41
0.566929
  0
VERTEX
  8
0
 10
491.501
 20
72.4475
 30
0.0
 40
0.2
 41
0.2
  0
VERTEX
  8
0
 10
491.501
 20
87.3485
 30
0.0
 40
0.2
 41
0.2
  0
VERTEX
  8
0
 10
491.501
 20
87.3594
 30
0.0
 40
0.2
 41
0.2
  0
VERTEX
  8
0
 10
491.483
 20
87.3912
 30
0.0
 40
0.2
 41
0.2
  0
VERTEX
  8
0
 10
491.462
 20
87.3855
 30
0.0
 40
0.2
 41
0.2
  0
VERTEX
  8
0
 10
491.458
 20
87.3637
 30
0.0
 40
0.2
 41
0.2
  0
VERTEX
  8
0
 10
491.49
 20
87.3485
 30
0.0
 40
0.2
 41
0.2
  0
VERTEX
  8
0
 10
491.501
 20
87.3485
 30
0.0
 40
0.2
 41
0.2
  0
VERTEX
  8
0
 10
494.298
 20
87.3485
 30
0.0
 40
0.2
 41
0.2
  0
VERTEX
  8
0
 10
494.309
 20
87.3485
 30
0.0
 40
0.2
 41
0.2
  0
VERTEX
  8
0
 10
494.34
 20
87.3637
 30
0.0
 40
0.2
 41
0.2
  0
VERTEX
  8
0
 10
494.337
 20
87.3855
 30
0.0
 40
0.2
 41
0.2
  0
VERTEX
  8
0
 10
494.312
 20
87.3912
 30
0.0
 40
0.2
 41
0.2
  0
VERTEX
  8
0
 10
494.298
 20
87.3594
 30
0.0
 40
0.2
 41
0.2
  0
VERTEX
  8
0
 10
494.298
 20
87.3485
 30
0.0
 40
0.2
 41
0.2
  0
VERTEX
  8
0
 10
494.298
 20
57.5483
 30
0.0
 40
0.2
 41
0.2
  0
VERTEX
  8
0
 10
494.298
 20
57.5388
 30
0.0
 40
0.2
 41
0.2
  0
VERTEX
  8
0
 10
494.312
 20
57.507
 30
0.0
 40
0.2
 41
0.2
  0
VERTEX
  8
0
 10
494.337
 20
57.5109
 30
0.0
 40
0.2
 41
0.2
  0
VERTEX
  8
0
 10
494.34
 20
57.5345
 30
0.0
 40
0.2
 41
0.2
  0
VERTEX
  8
0
 10
494.309
 20
57.5483
 30
0.0
 40
0.2
 41
0.2
  0
VERTEX
  8
0
 10
494.298
 20
57.5483
 30
0.0
 40
0.2
 41
0.2
  0
VERTEX
  8
0
 10
491.501
 20
57.5483
 30
0.0
 40
0.2
 41
0.2
  0
VERTEX
  8
0
 10
491.49
 20
57.5483
 30
0.0
 40
0.2
 41
0.2
  0
VERTEX
  8
0
 10
491.458
 20
57.5345
 30
0.0
 40
0.2
 41
0.2
  0
VERTEX
  8
0
 10
491.462
 20
57.5109
 30
0.0
 40
0.2
 41
0.2
  0
VERTEX
  8
0
 10
491.483
 20
57.507
 30
0.0
 40
0.2
 41
0.2
  0
VERTEX
  8
0
 10
491.501
 20
57.5388
 30
0.0
 40
0.2
 41
0.2
  0
VERTEX
  8
0
 10
491.501
 20
57.5483
 30
0.0
 40
0.2
 41
0.2
  0
VERTEX
  8
0
 10
491.501
 20
72.4475
 30
0.0
 40
0.2
 41
0.2
  0
SEQEND
 8
0
  0
POLYLINE
  8
0
 62
     5
 66
     1
 10
0
 20
0
 30
0.0
 70
     1
 40
0.566929
 41
0.566929
  0
VERTEX
  8
0
 10
418.5
 20
72.4475
 30
0.0
 40
0.2
 41
0.2
  0
VERTEX
  8
0
 10
418.5
 20
87.3485
 30
0.0
 40
0.2
 41
0.2
  0
VERTEX
  8
0
 10
418.5
 20
87.3594
 30
0.0
 40
0.2
 41
0.2
  0
VERTEX
  8
0
 10
418.483
 20
87.3912
 30
0.0
 40
0.2
 41
0.2
  0
VERTEX
  8
0
 10
418.461
 20
87.3855
 30
0.0
 40
0.2
 41
0.2
  0
VERTEX
  8
0
 10
418.458
 20
87.3637
 30
0.0
 40
0.2
 41
0.2
  0
VERTEX
  8
0
 10
418.49
 20
87.3485
 30
0.0
 40
0.2
 41
0.2
  0
VERTEX
  8
0
 10
418.5
 20
87.3485
 30
0.0
 40
0.2
 41
0.2
  0
VERTEX
  8
0
 10
421.298
 20
87.3485
 30
0.0
 40
0.2
 41
0.2
  0
VERTEX
  8
0
 10
421.308
 20
87.3485
 30
0.0
 40
0.2
 41
0.2
  0
VERTEX
  8
0
 10
421.34
 20
87.3637
 30
0.0
 40
0.2
 41
0.2
  0
VERTEX
  8
0
 10
421.337
 20
87.3855
 30
0.0
 40
0.2
 41
0.2
  0
VERTEX
  8
0
 10
421.312
 20
87.3912
 30
0.0
 40
0.2
 41
0.2
  0
VERTEX
  8
0
 10
421.298
 20
87.3594
 30
0.0
 40
0.2
 41
0.2
  0
VERTEX
  8
0
 10
421.298
 20
87.3485
 30
0.0
 40
0.2
 41
0.2
  0
VERTEX
  8
0
 10
421.298
 20
57.5483
 30
0.0
 40
0.2
 41
0.2
  0
VERTEX
  8
0
 10
421.298
 20
57.5388
 30
0.0
 40
0.2
 41
0.2
  0
VERTEX
  8
0
 10
421.312
 20
57.507
 30
0.0
 40
0.2
 41
0.2
  0
VERTEX
  8
0
 10
421.337
 20
57.5109
 30
0.0
 40
0.2
 41
0.2
  0
VERTEX
  8
0
 10
421.34
 20
57.5345
 30
0.0
 40
0.2
 41
0.2
  0
VERTEX
  8
0
 10
421.308
 20
57.5483
 30
0.0
 40
0.2
 41
0.2
  0
VERTEX
  8
0
 10
421.298
 20
57.5483
 30
0.0
 40
0.2
 41
0.2
  0
VERTEX
  8
0
 10
418.5
 20
57.5483
 30
0.0
 40
0.2
 41
0.2
  0
VERTEX
  8
0
 10
418.49
 20
57.5483
 30
0.0
 40
0.2
 41
0.2
  0
VERTEX
  8
0
 10
418.458
 20
57.5345
 30
0.0
 40
0.2
 41
0.2
  0
VERTEX
  8
0
 10
418.461
 20
57.5109
 30
0.0
 40
0.2
 41
0.2
  0
VERTEX
  8
0
 10
418.483
 20
57.507
 30
0.0
 40
0.2
 41
0.2
  0
VERTEX
  8
0
 10
418.5
 20
57.5388
 30
0.0
 40
0.2
 41
0.2
  0
VERTEX
  8
0
 10
418.5
 20
57.5483
 30
0.0
 40
0.2
 41
0.2
  0
VERTEX
  8
0
 10
418.5
 20
72.4475
 30
0.0
 40
0.2
 41
0.2
  0
SEQEND
 8
0
  0
POLYLINE
  8
0
 62
     0
 66
     1
 10
0
 20
0
 30
0.0
 70
     1
 40
0.566929
 41
0.566929
  0
VERTEX
  8
0
 10
535.697
 20
21.7
 30
0.0
 40
0.2
 41
0.2
  0
VERTEX
  8
0
 10
611.699
 20
21.7
 30
0.0
 40
0.2
 41
0.2
  0
VERTEX
  8
0
 10
612.348
 20
21.7
 30
0.0
 40
0.2
 41
0.2
  0
VERTEX
  8
0
 10
614.299
 20
21.8722
 30
0.0
 40
0.2
 41
0.2
  0
VERTEX
  8
0
 10
616.846
 20
22.378
 30
0.0
 40
0.2
 41
0.2
  0
VERTEX
  8
0
 10
619.308
 20
23.2131
 30
0.0
 40
0.2
 41
0.2
  0
VERTEX
  8
0
 10
621.083
 20
24.0412
 30
0.0
 40
0.2
 41
0.2
  0
VERTEX
  8
0
 10
621.647
 20
24.3665
 30
0.0
 40
0.2
 41
0.2
  0
VERTEX
  8
0
 10
621.93
 20
24.5305
 30
0.0
 40
0.2
 41
0.2
  0
VERTEX
  8
0
 10
622.755
 20
25.0569
 30
0.0
 40
0.2
 41
0.2
  0
VERTEX
  8
0
 10
623.813
 20
25.8162
 30
0.0
 40
0.2
 41
0.2
  0
VERTEX
  8
0
 10
624.819
 20
26.6416
 30
0.0
 40
0.2
 41
0.2
  0
VERTEX
  8
0
 10
625.768
 20
27.5291
 30
0.0
 40
0.2
 41
0.2
  0
VERTEX
  8
0
 10
626.653
 20
28.4772
 30
0.0
 40
0.2
 41
0.2
  0
VERTEX
  8
0
 10
627.479
 20
29.4817
 30
0.0
 40
0.2
 41
0.2
  0
VERTEX
  8
0
 10
628.241
 20
30.5401
 30
0.0
 40
0.2
 41
0.2
  0
VERTEX
  8
0
 10
628.766
 20
31.3669
 30
0.0
 40
0.2
 41
0.2
  0
VERTEX
  8
0
 10
628.929
 20
31.6494
 30
0.0
 40
0.2
 41
0.2
  0
VERTEX
  8
0
 10
629.253
 20
32.213
 30
0.0
 40
0.2
 41
0.2
  0
VERTEX
  8
0
 10
630.082
 20
33.9893
 30
0.0
 40
0.2
 41
0.2
  0
VERTEX
  8
0
 10
630.918
 20
36.449
 30
0.0
 40
0.2
 41
0.2
  0
VERTEX
  8
0
 10
631.423
 20
38.9971
 30
0.0
 40
0.2
 41
0.2
  0
VERTEX
  8
0
 10
631.596
 20
40.9483
 30
0.0
 40
0.2
 41
0.2
  0
VERTEX
  8
0
 10
631.596
 20
41.5988
 30
0.0
 40
0.2
 41
0.2
  0
VERTEX
  8
0
 10
631.596
 20
97.0964
 30
0.0
 40
0.2
 41
0.2
  0
VERTEX
  8
0
 10
631.596
 20
100.096
 30
0.0
 40
0.2
 41
0.2
  0
VERTEX
  8
0
 10
631.596
 20
100.114
 30
0.0
 40
0.2
 41
0.2
  0
VERTEX
  8
0
 10
631.567
 20
100.167
 30
0.0
 40
0.2
 41
0.2
  0
VERTEX
  8
0
 10
631.511
 20
100.196
 30
0.0
 40
0.2
 41
0.2
  0
VERTEX
  8
0
 10
631.497
 20
100.196
 30
0.0
 40
0.2
 41
0.2
  0
VERTEX
  8
0
 10
588.698
 20
100.196
 30
0.0
 40
0.2
 41
0.2
  0
VERTEX
  8
0
 10
588.68
 20
100.196
 30
0.0
 40
0.2
 41
0.2
  0
VERTEX
  8
0
 10
588.627
 20
100.167
 30
0.0
 40
0.2
 41
0.2
  0
VERTEX
  8
0
 10
588.596
 20
100.114
 30
0.0
 40
0.2
 41
0.2
  0
VERTEX
  8
0
 10
588.596
 20
100.096
 30
0.0
 40
0.2
 41
0.2
  0
VERTEX
  8
0
 10
588.596
 20
97.1973
 30
0.0
 40
0.2
 41
0.2
  0
VERTEX
  8
0
 10
588.596
 20
97.1875
 30
0.0
 40
0.2
 41
0.2
  0
VERTEX
  8
0
 10
588.61
 20
97.1557
 30
0.0
 40
0.2
 41
0.2
  0
VERTEX
  8
0
 10
588.634
 20
97.1599
 30
0.0
 40
0.2
 41
0.2
  0
VERTEX
  8
0
 10
588.638
 20
97.1832
 30
0.0
 40
0.2
 41
0.2
  0
VERTEX
  8
0
 10
588.606
 20
97.1973
 30
0.0
 40
0.2
 41
0.2
  0
VERTEX
  8
0
 10
588.596
 20
97.1973
 30
0.0
 40
0.2
 41
0.2
  0
VERTEX
  8
0
 10
558.796
 20
97.1973
 30
0.0
 40
0.2
 41
0.2
  0
VERTEX
  8
0
 10
558.786
 20
97.1973
 30
0.0
 40
0.2
 41
0.2
  0
VERTEX
  8
0
 10
558.754
 20
97.1832
 30
0.0
 40
0.2
 41
0.2
  0
VERTEX
  8
0
 10
558.758
 20
97.1599
 30
0.0
 40
0.2
 41
0.2
  0
VERTEX
  8
0
 10
558.782
 20
97.1557
 30
0.0
 40
0.2
 41
0.2
  0
VERTEX
  8
0
 10
558.796
 20
97.1875
 30
0.0
 40
0.2
 41
0.2
  0
VERTEX
  8
0
 10
558.796
 20
97.1973
 30
0.0
 40
0.2
 41
0.2
  0
VERTEX
  8
0
 10
558.796
 20
100.096
 30
0.0
 40
0.2
 41
0.2
  0
VERTEX
  8
0
 10
558.796
 20
100.114
 30
0.0
 40
0.2
 41
0.2
  0
VERTEX
  8
0
 10
558.768
 20
100.167
 30
0.0
 40
0.2
 41
0.2
  0
VERTEX
  8
0
 10
558.712
 20
100.196
 30
0.0
 40
0.2
 41
0.2
  0
VERTEX
  8
0
 10
558.698
 20
100.196
 30
0.0
 40
0.2
 41
0.2
  0
VERTEX
  8
0
 10
515.899
 20
100.196
 30
0.0
 40
0.2
 41
0.2
  0
VERTEX
  8
0
 10
515.881
 20
100.196
 30
0.0
 40
0.2
 41
0.2
  0
VERTEX
  8
0
 10
515.828
 20
100.167
 30
0.0
 40
0.2
 41
0.2
  0
VERTEX
  8
0
 10
515.8
 20
100.114
 30
0.0
 40
0.2
 41
0.2
  0
VERTEX
  8
0
 10
515.8
 20
100.096
 30
0.0
 40
0.2
 41
0.2
  0
VERTEX
  8
0
 10
515.8
 20
97.0964
 30
0.0
 40
0.2
 41
0.2
  0
VERTEX
  8
0
 10
515.8
 20
41.5988
 30
0.0
 40
0.2
 41
0.2
  0
VERTEX
  8
0
 10
515.8
 20
40.9483
 30
0.0
 40
0.2
 41
0.2
  0
VERTEX
  8
0
 10
515.969
 20
38.9971
 30
0.0
 40
0.2
 41
0.2
  0
VERTEX
  8
0
 10
516.474
 20
36.449
 30
0.0
 40
0.2
 41
0.2
  0
VERTEX
  8
0
 10
517.31
 20
33.9893
 30
0.0
 40
0.2
 41
0.2
  0
VERTEX
  8
0
 10
518.139
 20
32.213
 30
0.0
 40
0.2
 41
0.2
  0
VERTEX
  8
0
 10
518.463
 20
31.6494
 30
0.0
 40
0.2
 41
0.2
  0
VERTEX
  8
0
 10
518.626
 20
31.3669
 30
0.0
 40
0.2
 41
0.2
  0
VERTEX
  8
0
 10
519.155
 20
30.5401
 30
0.0
 40
0.2
 41
0.2
  0
VERTEX
  8
0
 10
519.913
 20
29.4817
 30
0.0
 40
0.2
 41
0.2
  0
VERTEX
  8
0
 10
520.739
 20
28.4772
 30
0.0
 40
0.2
 41
0.2
  0
VERTEX
  8
0
 10
521.628
 20
27.5291
 30
0.0
 40
0.2
 41
0.2
  0
VERTEX
  8
0
 10
522.573
 20
26.6416
 30
0.0
 40
0.2
 41
0.2
  0
VERTEX
  8
0
 10
523.579
 20
25.8162
 30
0.0
 40
0.2
 41
0.2
  0
VERTEX
  8
0
 10
524.637
 20
25.0569
 30
0.0
 40
0.2
 41
0.2
  0
VERTEX
  8
0
 10
525.463
 20
24.5305
 30
0.0
 40
0.2
 41
0.2
  0
VERTEX
  8
0
 10
525.748
 20
24.3665
 30
0.0
 40
0.2
 41
0.2
  0
VERTEX
  8
0
 10
526.309
 20
24.0412
 30
0.0
 40
0.2
 41
0.2
  0
VERTEX
  8
0
 10
528.087
 20
23.2131
 30
0.0
 40
0.2
 41
0.2
  0
VERTEX
  8
0
 10
530.546
 20
22.378
 30
0.0
 40
0.2
 41
0.2
  0
VERTEX
  8
0
 10
533.093
 20
21.8722
 30
0.0
 40
0.2
 41
0.2
  0
VERTEX
  8
0
 10
535.044
 20
21.7
 30
0.0
 40
0.2
 41
0.2
  0
VERTEX
  8
0
 10
535.697
 20
21.7
 30
0.0
 40
0.2
 41
0.2
  0
SEQEND
 8
0
  0
POLYLINE
  8
0
 62
     5
 66
     1
 10
0
 20
0
 30
0.0
 70
     1
 40
0.566929
 41
0.566929
  0
VERTEX
  8
0
 10
608.796
 20
72.4475
 30
0.0
 40
0.2
 41
0.2
  0
VERTEX
  8
0
 10
608.796
 20
87.3485
 30
0.0
 40
0.2
 41
0.2
  0
VERTEX
  8
0
 10
608.796
 20
87.3594
 30
0.0
 40
0.2
 41
0.2
  0
VERTEX
  8
0
 10
608.782
 20
87.3912
 30
0.0
 40
0.2
 41
0.2
  0
VERTEX
  8
0
 10
608.76
 20
87.3855
 30
0.0
 40
0.2
 41
0.2
  0
VERTEX
  8
0
 10
608.753
 20
87.3637
 30
0.0
 40
0.2
 41
0.2
  0
VERTEX
  8
0
 10
608.785
 20
87.3485
 30
0.0
 40
0.2
 41
0.2
  0
VERTEX
  8
0
 10
608.796
 20
87.3485
 30
0.0
 40
0.2
 41
0.2
  0
VERTEX
  8
0
 10
611.597
 20
87.3485
 30
0.0
 40
0.2
 41
0.2
  0
VERTEX
  8
0
 10
611.607
 20
87.3485
 30
0.0
 40
0.2
 41
0.2
  0
VERTEX
  8
0
 10
611.639
 20
87.3637
 30
0.0
 40
0.2
 41
0.2
  0
VERTEX
  8
0
 10
611.636
 20
87.3855
 30
0.0
 40
0.2
 41
0.2
  0
VERTEX
  8
0
 10
611.611
 20
87.3912
 30
0.0
 40
0.2
 41
0.2
  0
VERTEX
  8
0
 10
611.597
 20
87.3594
 30
0.0
 40
0.2
 41
0.2
  0
VERTEX
  8
0
 10
611.597
 20
87.3485
 30
0.0
 40
0.2
 41
0.2
  0
VERTEX
  8
0
 10
611.597
 20
57.5483
 30
0.0
 40
0.2
 41
0.2
  0
VERTEX
  8
0
 10
611.597
 20
57.5388
 30
0.0
 40
0.2
 41
0.2
  0
VERTEX
  8
0
 10
611.611
 20
57.507
 30
0.0
 40
0.2
 41
0.2
  0
VERTEX
  8
0
 10
611.636
 20
57.5109
 30
0.0
 40
0.2
 41
0.2
  0
VERTEX
  8
0
 10
611.639
 20
57.5345
 30
0.0
 40
0.2
 41
0.2
  0
VERTEX
  8
0
 10
611.607
 20
57.5483
 30
0.0
 40
0.2
 41
0.2
  0
VERTEX
  8
0
 10
611.597
 20
57.5483
 30
0.0
 40
0.2
 41
0.2
  0
VERTEX
  8
0
 10
608.796
 20
57.5483
 30
0.0
 40
0.2
 41
0.2
  0
VERTEX
  8
0
 10
608.785
 20
57.5483
 30
0.0
 40
0.2
 41
0.2
  0
VERTEX
  8
0
 10
608.753
 20
57.5345
 30
0.0
 40
0.2
 41
0.2
  0
VERTEX
  8
0
 10
608.76
 20
57.5109
 30
0.0
 40
0.2
 41
0.2
  0
VERTEX
  8
0
 10
608.782
 20
57.507
 30
0.0
 40
0.2
 41
0.2
  0
VERTEX
  8
0
 10
608.796
 20
57.5388
 30
0.0
 40
0.2
 41
0.2
  0
VERTEX
  8
0
 10
608.796
 20
57.5483
 30
0.0
 40
0.2
 41
0.2
  0
VERTEX
  8
0
 10
608.796
 20
72.4475
 30
0.0
 40
0.2
 41
0.2
  0
SEQEND
 8
0
  0
POLYLINE
  8
0
 62
     5
 66
     1
 10
0
 20
0
 30
0.0
 70
     1
 40
0.566929
 41
0.566929
  0
VERTEX
  8
0
 10
535.799
 20
72.4475
 30
0.0
 40
0.2
 41
0.2
  0
VERTEX
  8
0
 10
535.799
 20
87.3485
 30
0.0
 40
0.2
 41
0.2
  0
VERTEX
  8
0
 10
535.799
 20
87.3594
 30
0.0
 40
0.2
 41
0.2
  0
VERTEX
  8
0
 10
535.781
 20
87.3912
 30
0.0
 40
0.2
 41
0.2
  0
VERTEX
  8
0
 10
535.76
 20
87.3855
 30
0.0
 40
0.2
 41
0.2
  0
VERTEX
  8
0
 10
535.757
 20
87.3637
 30
0.0
 40
0.2
 41
0.2
  0
VERTEX
  8
0
 10
535.788
 20
87.3485
 30
0.0
 40
0.2
 41
0.2
  0
VERTEX
  8
0
 10
535.799
 20
87.3485
 30
0.0
 40
0.2
 41
0.2
  0
VERTEX
  8
0
 10
538.596
 20
87.3485
 30
0.0
 40
0.2
 41
0.2
  0
VERTEX
  8
0
 10
538.607
 20
87.3485
 30
0.0
 40
0.2
 41
0.2
  0
VERTEX
  8
0
 10
538.639
 20
87.3637
 30
0.0
 40
0.2
 41
0.2
  0
VERTEX
  8
0
 10
538.635
 20
87.3855
 30
0.0
 40
0.2
 41
0.2
  0
VERTEX
  8
0
 10
538.611
 20
87.3912
 30
0.0
 40
0.2
 41
0.2
  0
VERTEX
  8
0
 10
538.596
 20
87.3594
 30
0.0
 40
0.2
 41
0.2
  0
VERTEX
  8
0
 10
538.596
 20
87.3485
 30
0.0
 40
0.2
 41
0.2
  0
VERTEX
  8
0
 10
538.596
 20
57.5483
 30
0.0
 40
0.2
 41
0.2
  0
VERTEX
  8
0
 10
538.596
 20
57.5388
 30
0.0
 40
0.2
 41
0.2
  0
VERTEX
  8
0
 10
538.611
 20
57.507
 30
0.0
 40
0.2
 41
0.2
  0
VERTEX
  8
0
 10
538.635
 20
57.5109
 30
0.0
 40
0.2
 41
0.2
  0
VERTEX
  8
0
 10
538.639
 20
57.5345
 30
0.0
 40
0.2
 41
0.2
  0
VERTEX
  8
0
 10
538.607
 20
57.5483
 30
0.0
 40
0.2
 41
0.2
  0
VERTEX
  8
0
 10
538.596
 20
57.5483
 30
0.0
 40
0.2
 41
0.2
  0
VERTEX
  8
0
 10
535.799
 20
57.5483
 30
0.0
 40
0.2
 41
0.2
  0
VERTEX
  8
0
 10
535.788
 20
57.5483
 30
0.0
 40
0.2
 41
0.2
  0
VERTEX
  8
0
 10
535.757
 20
57.5345
 30
0.0
 40
0.2
 41
0.2
  0
VERTEX
  8
0
 10
535.76
 20
57.5109
 30
0.0
 40
0.2
 41
0.2
  0
VERTEX
  8
0
 10
535.781
 20
57.507
 30
0.0
 40
0.2
 41
0.2
  0
VERTEX
  8
0
 10
535.799
 20
57.5388
 30
0.0
 40
0.2
 41
0.2
  0
VERTEX
  8
0
 10
535.799
 20
57.5483
 30
0.0
 40
0.2
 41
0.2
  0
VERTEX
  8
0
 10
535.799
 20
72.4475
 30
0.0
 40
0.2
 41
0.2
  0
SEQEND
 8
0
  0
ENDSEC
  0
EOF
